<?xml version="1.0" encoding="utf-8"?>
<!-- Generator: Adobe Illustrator 18.1.1, SVG Export Plug-In . SVG Version: 6.00 Build 0)  -->
<svg version="1.1" id="Layer_1" xmlns="http://www.w3.org/2000/svg" xmlns:xlink="http://www.w3.org/1999/xlink" x="0px" y="0px"
	 viewBox="0 0 500 500" enable-background="new 0 0 500 500" xml:space="preserve">
<polygon fill="#323132" points="315,185 185,185 185,315 185,500 315,500 315,315 500,315 500,185 "/>
<path fill="#3878FF" d="M495,218.3l-57.5,45.8l-62.5-50l-62.5,50l-54.2-42.5l-8.3-7.5L230.8,230l-16.7,20l6.7,8.3l43.3,54.2
	l-50,62.5l50,62.5L218.3,495c-0.8,1.7-1.7,3.3-1.7,5h19.2l50-62.5l-50-62.5l50-62.5l-50-62.5l6.7-8.3l7.5-5.8l62.5,50l62.5-50
	l62.5,50l62.5-50v-19.2C498.3,216.7,496.7,217.5,495,218.3z"/>
<polygon fill="#3878FF" points="500,329 500,315 315,315 315,500 329,500 329,329 "/>
<polygon fill="#3878FF" points="185,315 185,185 315,185 500,185 500,171 315,171 185,171 171,171 171,185 171,315 171,500 185,500 
	"/>
</svg>
