<?xml version="1.0" encoding="utf-8"?>
<!-- Generator: Adobe Illustrator 18.1.1, SVG Export Plug-In . SVG Version: 6.00 Build 0)  -->
<svg version="1.1" id="Layer_1" xmlns="http://www.w3.org/2000/svg" xmlns:xlink="http://www.w3.org/1999/xlink" x="0px" y="0px"
	 viewBox="0 0 60 60" enable-background="new 0 0 60 60" xml:space="preserve">
<g>
	<rect fill="#4D4D4D" width="60" height="60"/>
	<g>
		<rect x="36" y="0.1" fill="#3878FF" width="2" height="60"/>
	</g>
	<g>
		<rect x="22" y="0.1" fill="#3878FF" width="2" height="60"/>
	</g>
	<rect x="15.3" y="-0.1" fill="#4D4D4D" width="30" height="22.2"/>
	<rect x="35.3" y="24.1" fill="#4D4D4D" width="3.8" height="12"/>
	<rect x="7" y="36" fill="#3878FF" width="53" height="2"/>
	<rect x="7" y="22" fill="#3878FF" width="53" height="2"/>
	<rect y="-0.1" fill="#4D4D4D" width="22" height="39.6"/>
	<rect x="24" y="34.8" fill="#4D4D4D" width="12" height="4.2"/>
	<path fill="#3878FF" d="M59.4,26.2l-6.9,5.5l-7.5-6l-7.5,6L31,26.6L30,25.7l-2.3,1.9L25.7,30l0.8,1l5.2,6.5l-6,7.5l6,7.5l-5.5,6.9
		C26.1,59.6,26,59.8,26,60h2.3l6-7.5l-6-7.5l6-7.5l-6-7.5l0.8-1l0.9-0.7l7.5,6l7.5-6l7.5,6l7.5-6V26C59.8,26,59.6,26.1,59.4,26.2z"
		/>
</g>
</svg>
