<?xml version="1.0" encoding="utf-8"?>
<!-- Generator: Adobe Illustrator 18.1.1, SVG Export Plug-In . SVG Version: 6.00 Build 0)  -->
<svg version="1.1" id="Layer_1" xmlns="http://www.w3.org/2000/svg" xmlns:xlink="http://www.w3.org/1999/xlink" x="0px" y="0px"
	 viewBox="0 0 500 500" enable-background="new 0 0 500 500" xml:space="preserve">
<rect y="185" fill="#323132" width="500" height="130"/>
<path fill="#3878FF" d="M495,217.3l-57.5,45.8l-62.5-50l-62.5,50l-62.5-50l-62.5,50l-62.5-50l-62.5,50L5,217.3c-1.7-0.8-5-1.7-5-1.7
	v19.2l62.5,50l62.5-50l62.5,50l62.5-50l62.5,50l62.5-50l62.5,50l62.5-50v-19.2C500,215.7,496.7,216.5,495,217.3z"/>
<rect y="185" fill="none" width="500" height="130"/>
<rect y="171" fill="#3878FF" width="500" height="14"/>
<rect y="315" fill="#3878FF" width="500" height="14"/>
</svg>
