<?xml version="1.0" encoding="utf-8"?>
<!-- Generator: Adobe Illustrator 18.1.1, SVG Export Plug-In . SVG Version: 6.00 Build 0)  -->
<svg version="1.1" id="Layer_1" xmlns="http://www.w3.org/2000/svg" xmlns:xlink="http://www.w3.org/1999/xlink" x="0px" y="0px"
	 viewBox="0 0 60 60" enable-background="new 0 0 60 60" xml:space="preserve">
<rect fill="#4D4D4D" width="60" height="60"/>
<g>
	<rect x="0" y="36.1" fill="#3878FF" width="60" height="2"/>
</g>
<g>
	<rect x="0" y="22.1" fill="#3878FF" width="60" height="2"/>
</g>
<path fill="#3878FF" d="M59.4,26.2l-6.9,5.5l-7.5-6l-7.5,6l-7.5-6l-7.5,6l-7.5-6l-7.5,6l-6.9-5.5C0.4,26.1,0,26,0,26v2.3l7.5,6
	l7.5-6l7.5,6l7.5-6l7.5,6l7.5-6l7.5,6l7.5-6V26C60,26,59.6,26.1,59.4,26.2z"/>
</svg>
