<?xml version="1.0" encoding="utf-8"?>
<!-- Generator: Adobe Illustrator 18.1.1, SVG Export Plug-In . SVG Version: 6.00 Build 0)  -->
<svg version="1.1" id="Layer_1" xmlns="http://www.w3.org/2000/svg" xmlns:xlink="http://www.w3.org/1999/xlink" x="0px" y="0px"
	 viewBox="0 0 32 32" enable-background="new 0 0 32 32" xml:space="preserve">
<g>
	<g>
		<linearGradient id="SVGID_1_" gradientUnits="userSpaceOnUse" x1="31.7843" y1="31.756" x2="10.5711" y2="10.5428">
			<stop  offset="0" style="stop-color:#3878FF;stop-opacity:0"/>
			<stop  offset="1" style="stop-color:#3878FF"/>
		</linearGradient>
		<path fill="url(#SVGID_1_)" d="M24.5,31.9h-15c-4.1,0-7.5-3.4-7.5-7.5v-15c0-4.1,3.4-7.5,7.5-7.5h15c4.1,0,7.5,3.4,7.5,7.5v15
			C32,28.6,28.6,31.9,24.5,31.9z"/>
	</g>
	<g>
		<path fill="#F2F2F2" d="M7.5,29.3c-3.7,0-6.8-3-6.8-6.8v-15c0-3.7,3-6.8,6.8-6.8h15c3.7,0,6.8,3,6.8,6.8v15c0,3.7-3,6.8-6.8,6.8
			H7.5z"/>
		<path fill="#3878FF" d="M22.5,1.5c3.3,0,6,2.7,6,6v15c0,3.3-2.7,6-6,6h-15c-3.3,0-6-2.7-6-6v-15c0-3.3,2.7-6,6-6H22.5 M22.5,0h-15
			C3.4,0,0,3.4,0,7.5v15C0,26.6,3.4,30,7.5,30h15c4.1,0,7.5-3.4,7.5-7.5v-15C30,3.4,26.6,0,22.5,0L22.5,0z"/>
	</g>
	<g>
		<path fill="#3878FF" d="M23,22h-4.5c-0.3,0-0.5-0.2-0.5-0.5V8c0-0.3,0.2-0.5,0.5-0.5S19,7.7,19,8v13h4c0.3,0,0.5,0.2,0.5,0.5
			S23.3,22,23,22z"/>
	</g>
	<g>
		<path fill="#3878FF" d="M24.8,20.1h-3.7c-0.7,0-1.3-0.6-1.3-1.3v-3.7c0-0.7,0.6-1.3,1.3-1.3h3.7c0.7,0,1.3,0.6,1.3,1.3v3.7
			C26.1,19.6,25.5,20.1,24.8,20.1z M21.2,15.1c-0.1,0-0.1,0-0.1,0.1v3.7c0,0.1,0,0.1,0.1,0.1h3.7c0.1,0,0.1,0,0.1-0.1v-3.7
			c0-0.1,0-0.1-0.1-0.1H21.2z"/>
	</g>
	<g>
		<path fill="#3878FF" d="M7.4,22.5c-1.1,0-2.1-0.9-2.1-2.1s0.9-2.1,2.1-2.1s2.1,0.9,2.1,2.1S8.5,22.5,7.4,22.5z M7.4,19.2
			c-0.6,0-1.2,0.5-1.2,1.2s0.5,1.2,1.2,1.2s1.2-0.5,1.2-1.2S8,19.2,7.4,19.2z"/>
	</g>
	<g>
		<path fill="#3878FF" d="M15,22.5c-1.1,0-2.1-0.9-2.1-2.1s0.9-2.1,2.1-2.1s2.1,0.9,2.1,2.1S16.1,22.5,15,22.5z M15,19.2
			c-0.6,0-1.2,0.5-1.2,1.2s0.5,1.2,1.2,1.2s1.2-0.5,1.2-1.2S15.6,19.2,15,19.2z"/>
	</g>
	<g>
		<path fill="#3878FF" d="M4.5,19.5C4.2,19.5,4,19.3,4,19v-3.5C4,15.2,4.2,15,4.5,15H6v-4.3C6,10,7.4,9,8,9h6c0.6,0,1.1,0.4,1.2,1
			l1.4,6.4c0,0.1,0,0.3-0.1,0.4c-0.1,0.1-0.2,0.2-0.4,0.2h-3.5c-0.1,0-0.2,0-0.3-0.1l-1-0.9H9c-0.3,0-0.5-0.2-0.5-0.5S8.7,15,9,15
			h2.5c0.1,0,0.2,0,0.3,0.1l1,0.9h2.7l-1.3-5.8c0-0.1-0.1-0.2-0.3-0.2H8c-0.2,0-0.9,0.6-1,0.8l0,4.7C7,15.8,6.8,16,6.5,16H5v3
			C5,19.3,4.8,19.5,4.5,19.5z"/>
	</g>
	<g>
		<path fill="#3878FF" d="M10.3,20c-0.3,0-0.5-0.2-0.5-0.5c0-0.3,0.2-0.5,0.5-0.5l1.7,0c0.3,0,0.5,0.2,0.5,0.5
			c0,0.3-0.2,0.5-0.5,0.5L10.3,20C10.3,20,10.3,20,10.3,20z"/>
	</g>
</g>
</svg>
