<?xml version="1.0" encoding="utf-8"?>
<!-- Generator: Adobe Illustrator 18.1.1, SVG Export Plug-In . SVG Version: 6.00 Build 0)  -->
<svg version="1.1" id="Layer_1" xmlns="http://www.w3.org/2000/svg" xmlns:xlink="http://www.w3.org/1999/xlink" x="0px" y="0px"
	 viewBox="0 0 32 32" enable-background="new 0 0 32 32" xml:space="preserve">
<g>
	<g>
		<linearGradient id="SVGID_1_" gradientUnits="userSpaceOnUse" x1="31.8185" y1="31.8185" x2="10.6053" y2="10.6053">
			<stop  offset="0" style="stop-color:#3878FF;stop-opacity:0"/>
			<stop  offset="1" style="stop-color:#3878FF"/>
		</linearGradient>
		<path fill="url(#SVGID_1_)" d="M24.5,32h-15C5.4,32,2,28.6,2,24.5v-15C2,5.4,5.4,2,9.5,2h15C28.6,2,32,5.4,32,9.5v15
			C32,28.6,28.6,32,24.5,32z"/>
	</g>
	<g>
		<g>
			<path fill="#FFFFFF" d="M22.5,30h-15C3.3,30,0,26.6,0,22.5v-15C0,3.3,3.3,0,7.5,0h15C26.6,0,30,3.3,30,7.5v15
				C30,26.6,26.6,30,22.5,30z"/>
		</g>
		<g>
			<path fill="#3878FF" d="M22.5,1.8c3.1,0,5.8,2.6,5.8,5.8v15c0,3.1-2.6,5.8-5.8,5.8h-15c-3.2,0-5.8-2.6-5.8-5.8v-15
				c0-3.2,2.6-5.8,5.8-5.8H22.5 M22.5,0h-15C3.3,0,0,3.3,0,7.5v15C0,26.6,3.3,30,7.5,30h15c4.1,0,7.5-3.4,7.5-7.5v-15
				C30,3.3,26.6,0,22.5,0L22.5,0z"/>
		</g>
		<g>
			<path fill="#3878FF" d="M14.3,25.4H8.9c-0.4,0-0.8-0.4-0.8-0.8s0.4-0.8,0.8-0.8H14v-4.6c0-0.7,0.6-1.3,1.3-1.3h4.6v-4.6
				c0-0.7,0.5-1.3,1.3-1.3h5.3c0.4,0,0.8,0.4,0.8,0.8s-0.4,0.8-0.8,0.8h-5.1v4.6c0,0.7-0.5,1.3-1.3,1.3h-4.6V24
				C15.6,24.8,14.9,25.4,14.3,25.4z"/>
		</g>
		<g>
			<g>
				<path fill="#3878FF" d="M13.4,14.6c-0.1,0-0.3-0.1-0.4-0.1c-0.2-0.2-0.2-0.5,0-0.7l7.1-7.1c0.1-0.2,0.4-0.2,0.6-0.1S21,7,21,7.2
					l-0.9,3.6c0,0.3-0.4,0.4-0.6,0.4c-0.3-0.1-0.5-0.4-0.4-0.6l0.5-1.9l-5.8,5.8C13.7,14.6,13.6,14.6,13.4,14.6z"/>
			</g>
			<g>
				<path fill="#3878FF" d="M17,8.4c-0.2,0-0.5-0.1-0.5-0.4s0.1-0.6,0.4-0.6l3.6-0.9C20.7,6.5,21,6.7,21,6.9c0,0.3-0.1,0.6-0.4,0.6
					l-3.6,0.9C17,8.4,17,8.4,17,8.4z"/>
			</g>
		</g>
		<g>
			<g>
				<path fill="#3878FF" d="M5.4,18.2c-0.1,0-0.2,0-0.3,0c-0.2-0.1-0.3-0.4-0.3-0.5L5.8,14c0.1-0.3,0.3-0.4,0.6-0.4
					c0.3,0.1,0.4,0.4,0.3,0.6l-0.4,1.9l5.8-5.8c0.2-0.2,0.5-0.2,0.7,0s0.2,0.5,0,0.7l-7.1,7C5.7,18.1,5.5,18.2,5.4,18.2z"/>
			</g>
			<g>
				<path fill="#3878FF" d="M5.4,18.2c-0.2,0-0.4-0.1-0.5-0.4s0.1-0.5,0.3-0.6l3.6-0.9c0.3,0,0.6,0.1,0.6,0.4s-0.1,0.5-0.4,0.6
					L5.4,18.2C5.4,18.2,5.4,18.2,5.4,18.2z"/>
			</g>
		</g>
	</g>
</g>
</svg>
