<?xml version="1.0" encoding="utf-8"?>
<!-- Generator: Adobe Illustrator 18.1.1, SVG Export Plug-In . SVG Version: 6.00 Build 0)  -->
<svg version="1.1" id="Layer_1" xmlns="http://www.w3.org/2000/svg" xmlns:xlink="http://www.w3.org/1999/xlink" x="0px" y="0px"
	 viewBox="0 0 32 32" enable-background="new 0 0 32 32" xml:space="preserve">
<g>
	<g>
		<linearGradient id="SVGID_1_" gradientUnits="userSpaceOnUse" x1="31.8185" y1="31.8185" x2="10.6053" y2="10.6053">
			<stop  offset="0" style="stop-color:#3878FF;stop-opacity:0"/>
			<stop  offset="1" style="stop-color:#3878FF"/>
		</linearGradient>
		<path fill="url(#SVGID_1_)" d="M24.5,32h-15C5.4,32,2,28.6,2,24.5v-15C2,5.4,5.4,2,9.5,2h15C28.6,2,32,5.4,32,9.5v15
			C32,28.6,28.6,32,24.5,32z"/>
	</g>
	<path fill="#FFFFFF" d="M7.5,29.1c-3.7,0-6.6-3-6.6-6.6v-15c0-3.7,2.9-6.6,6.6-6.6h15c3.6,0,6.6,2.9,6.6,6.7v15
		c0,3.6-3,6.6-6.6,6.6L7.5,29.1L7.5,29.1z"/>
	<path fill="#3878FF" d="M22.5,1.8c3.1,0,5.8,2.6,5.8,5.8v15c0,3.1-2.6,5.8-5.8,5.8h-15c-3.2,0-5.8-2.6-5.8-5.8v-15
		c0-3.2,2.6-5.8,5.8-5.8H22.5 M22.5,0h-15C3.3,0,0,3.3,0,7.5v15C0,26.6,3.3,30,7.5,30h15c4.1,0,7.5-3.4,7.5-7.5v-15
		C30,3.3,26.6,0,22.5,0L22.5,0z"/>
	<path fill="#FFFFFF" d="M7.1,28.4V9.3c0-0.3,0.2-0.5,0.5-0.5h14.9c0.3,0,0.5,0.2,0.5,0.5v19.1"/>
	<path fill="#3878FF" d="M23,29.1c-0.4,0-0.8-0.4-0.8-0.8V9.5H7.8v18.9c0,0.4-0.3,0.8-0.8,0.8s-0.8-0.4-0.8-0.8V9.3
		C6.3,8.6,6.9,8,7.6,8h14.9c0.7,0,1.3,0.6,1.3,1.3v19.1C23.7,28.8,23.4,29.1,23,29.1z"/>
	<line fill="none" x1="15" y1="28.4" x2="14.9" y2="9"/>
	<path fill="#3878FF" d="M15,29c-0.4,0-0.8-0.3-0.8-0.7L14.2,9.1c0-0.4,0.4-0.6,0.8-0.6l0,0c0.4,0,0.8,0.2,0.8,0.6l0.1,19.3
		C15.8,28.8,15.4,29,15,29L15,29z"/>
	<polygon fill="#FFFFFF" points="10.9,6 12.4,3.8 14.1,6 	"/>
	<path fill="#3878FF" d="M12.4,4.6l0.6,0.9h-1.3L12.4,4.6 M12.4,3c-0.1,0-0.1,0-0.2,0.1l-2.1,2.9c-0.1,0.2,0,0.4,0.2,0.4h4.1
		c0.2,0,0.4-0.3,0.2-0.4l-2.1-2.9C12.6,3.1,12.5,3,12.4,3L12.4,3z"/>
	<polygon fill="#FFFFFF" points="15.5,3.5 18.8,3.5 17.1,5.8 	"/>
	<path fill="#3878FF" d="M17.8,4.1L17.1,5l-0.6-0.9H17.8 M19.2,3h-4.1c-0.2,0-0.4,0.3-0.2,0.5L17,6.4c0,0.1,0.1,0.1,0.1,0.1
		s0.1-0.1,0.2-0.1l2-2.9C19.5,3.3,19.4,3,19.2,3L19.2,3z"/>
</g>
</svg>
