<?xml version="1.0" encoding="utf-8"?>
<!-- Generator: Adobe Illustrator 18.1.1, SVG Export Plug-In . SVG Version: 6.00 Build 0)  -->
<svg version="1.1" xmlns="http://www.w3.org/2000/svg" xmlns:xlink="http://www.w3.org/1999/xlink" x="0px" y="0px"
	 viewBox="0 0 32 32" enable-background="new 0 0 32 32" xml:space="preserve">
<g id="Layer_2">
</g>
<g id="Layer_1">
	<g>
		
			<linearGradient id="SVGID_1_" gradientUnits="userSpaceOnUse" x1="31.8185" y1="0.1815" x2="10.6053" y2="21.3947" gradientTransform="matrix(1 0 0 -1 0 32)">
			<stop  offset="0" style="stop-color:#3878FF;stop-opacity:0"/>
			<stop  offset="1" style="stop-color:#3878FF"/>
		</linearGradient>
		<path fill="url(#SVGID_1_)" d="M24.5,32h-15C5.4,32,2,28.6,2,24.5v-15C2,5.4,5.4,2,9.5,2h15C28.6,2,32,5.4,32,9.5v15
			C32,28.6,28.6,32,24.5,32z"/>
	</g>
	<path fill="#FFFFFF" d="M7.5,29.1c-3.7,0-6.6-3-6.6-6.6v-15c0-3.7,2.9-6.6,6.6-6.6h15c3.6,0,6.6,2.9,6.6,6.7v15
		c0,3.6-3,6.6-6.6,6.6L7.5,29.1L7.5,29.1z"/>
	<path fill="#3878FF" d="M22.5,1.8c3.1,0,5.8,2.6,5.8,5.8v15c0,3.1-2.6,5.8-5.8,5.8h-15c-3.2,0-5.8-2.6-5.8-5.8v-15
		c0-3.2,2.6-5.8,5.8-5.8L22.5,1.8 M22.5,0h-15C3.3,0,0,3.3,0,7.5v15C0,26.6,3.3,30,7.5,30h15c4.1,0,7.5-3.4,7.5-7.5v-15
		C30,3.3,26.6,0,22.5,0L22.5,0z"/>
	<g>
		<path fill="#3878FF" d="M14.2,7.7c-1.1,0-2-0.9-2-2s0.9-2,2-2s2,0.9,2,2S15.3,7.7,14.2,7.7z M14.2,4.5c-0.7,0-1.3,0.6-1.3,1.3
			S13.5,7,14.2,7c0.7,0,1.3-0.6,1.3-1.3S14.9,4.5,14.2,4.5z"/>
	</g>
	<rect x="16.7" y="15.4" fill="#3FA9F5" width="0" height="1"/>
	<path fill="#3FA9F5" d="M16.7,15.6L16.7,15.6C16.7,15.6,16.7,15.6,16.7,15.6L16.7,15.6C16.7,15.6,16.7,15.6,16.7,15.6z"/>
	<g>
		<path fill="#3878FF" d="M15.5,27.6c-0.6,0-1.2-0.5-1.2-1.2v-8.1c0-0.1-0.2-0.1-0.2,0v8.1c0,0.6-0.5,1.2-1.2,1.2
			c-0.6,0-1.2-0.5-1.2-1.2v-8.5c-0.2,0.2-0.4,0.3-0.7,0.3c-0.5,0-1-0.4-1-1v-6.8c0-1.1,0.8-2.1,1.9-2.3c0.1,0,0.1-0.1,0.2-0.1h4.2
			c0.1,0,0.1,0,0.2,0.1c1.1,0.2,1.8,1.2,1.8,2.3v2.8h2.4c0.5,0,1,0.4,1,1s-0.4,1-1,1h-3.1c-0.4,0-0.8-0.2-1-0.5v11.7
			C16.7,27,16.1,27.6,15.5,27.6z M14.2,17.5c0.5,0,0.9,0.4,0.9,0.9v8.1c0,0.2,0.2,0.4,0.4,0.4s0.4-0.2,0.4-0.4V11
			c0-0.3,0.3-0.6,0.6-0.6c0.4,0,0.6,0.3,0.6,0.6v2.8c0,0.3,0.3,0.6,0.6,0.6h3.1c0.1,0,0.2-0.1,0.2-0.2S20.9,14,20.7,14H18
			c-0.2,0-0.4-0.2-0.4-0.4v-3.2c0-0.8-0.6-1.4-1.4-1.6c0,0-0.1,0-0.1,0h-3.9c0,0-0.1,0-0.1,0c-0.8,0.1-1.4,0.8-1.4,1.6v6.8
			c0,0.3,0.5,0.3,0.5,0V11c0-0.3,0.3-0.6,0.6-0.6c0.4,0,0.6,0.3,0.6,0.6v15.4c0,0.2,0.2,0.4,0.4,0.4s0.4-0.2,0.4-0.4v-8.1
			C13.3,17.9,13.7,17.5,14.2,17.5z"/>
	</g>
	<g>
		<path fill="#3878FF" d="M23.5,12.6h-3.2c-0.6,0-1.1-0.5-1.1-1.1V8.3c0-0.6,0.5-1.1,1.1-1.1h3.2c0.6,0,1.1,0.5,1.1,1.1v3.2
			C24.7,12.1,24.1,12.6,23.5,12.6z M20.4,8.3C20.4,8.3,20.4,8.3,20.4,8.3l-0.1,3.3c0,0.1,0,0.1,0.1,0.1h3.2c0.1,0,0.1,0,0.1-0.1V8.3
			c0-0.1,0-0.1-0.1-0.1C23.6,8.3,20.4,8.3,20.4,8.3z"/>
	</g>
</g>
</svg>
