<?xml version="1.0" encoding="utf-8"?>
<!-- Generator: Adobe Illustrator 18.1.1, SVG Export Plug-In . SVG Version: 6.00 Build 0)  -->
<svg version="1.1" id="Layer_1" xmlns="http://www.w3.org/2000/svg" xmlns:xlink="http://www.w3.org/1999/xlink" x="0px" y="0px"
	 viewBox="0 0 32 32" enable-background="new 0 0 32 32" xml:space="preserve">
<g>
	<linearGradient id="SVGID_1_" gradientUnits="userSpaceOnUse" x1="31.8183" y1="31.8185" x2="10.6051" y2="10.6053">
		<stop  offset="0" style="stop-color:#1B1464;stop-opacity:0.2"/>
		<stop  offset="1" style="stop-color:#EE4722"/>
	</linearGradient>
	<path fill="url(#SVGID_1_)" d="M24.5,32h-15C5.4,32,2,28.6,2,24.5v-15C2,5.4,5.4,2,9.5,2h15C28.6,2,32,5.4,32,9.5v15
		C32,28.6,28.6,32,24.5,32z"/>
</g>
<g>
	<g>
		<path fill="#FFFFFF" d="M22.5,30h-15C3.3,30,0,26.6,0,22.5v-15C0,3.3,3.3,0,7.5,0h15C26.6,0,30,3.3,30,7.5v15
			C30,26.6,26.6,30,22.5,30z"/>
	</g>
	<g>
		<path fill="#EE4722" d="M22.5,1.8c3.1,0,5.8,2.6,5.8,5.8v15c0,3.1-2.6,5.8-5.8,5.8h-15c-3.2,0-5.8-2.6-5.8-5.8v-15
			c0-3.2,2.6-5.8,5.8-5.8H22.5 M22.5,0h-15C3.3,0,0,3.3,0,7.5v15C0,26.6,3.3,30,7.5,30h15c4.1,0,7.5-3.4,7.5-7.5v-15
			C30,3.3,26.6,0,22.5,0L22.5,0z"/>
	</g>
	<g>
		<path fill="#3878FF" d="M10.7,18c-0.4,0-0.8-0.4-0.8-0.8v-5.6c0-0.4,0.4-0.8,0.8-0.8h5.6c0.4,0,0.8,0.4,0.8,0.8s-0.4,0.8-0.8,0.8
			h-4.9v4.8C11.4,17.7,11.1,18,10.7,18z"/>
	</g>
	<g>
		<path fill="#EE4722" d="M21.9,23.6H10.7c-0.4,0-0.8-0.4-0.8-0.8v-2.3c0-0.4,0.4-0.8,0.8-0.8s0.8,0.4,0.8,0.8v1.5h9.7v-9.7h-1.6
			c-0.4,0-0.8-0.4-0.8-0.8s0.4-0.8,0.8-0.8h2.4c0.4,0,0.8,0.4,0.8,0.8v11.2C22.6,23.3,22.3,23.6,21.9,23.6z"/>
	</g>
	<g>
		<path fill="#3878FF" d="M10.7,12.4H5.1c-0.4,0-0.8-0.4-0.8-0.8s0.3-0.8,0.8-0.8h4.8V6.1c0-0.4,0.4-0.8,0.8-0.8s0.8,0.3,0.8,0.8
			v5.6C11.4,12.1,11.1,12.4,10.7,12.4z"/>
	</g>
</g>
</svg>
