<?xml version="1.0" encoding="utf-8"?>
<!-- Generator: Adobe Illustrator 18.1.1, SVG Export Plug-In . SVG Version: 6.00 Build 0)  -->
<svg version="1.1" id="Layer_1" xmlns="http://www.w3.org/2000/svg" xmlns:xlink="http://www.w3.org/1999/xlink" x="0px" y="0px"
	 viewBox="0 0 32 32" enable-background="new 0 0 32 32" xml:space="preserve">
<g>
	<linearGradient id="SVGID_1_" gradientUnits="userSpaceOnUse" x1="31.8183" y1="31.8183" x2="10.6051" y2="10.6051">
		<stop  offset="0" style="stop-color:#1B1464;stop-opacity:0.2"/>
		<stop  offset="1" style="stop-color:#EE4722"/>
	</linearGradient>
	<path fill="url(#SVGID_1_)" d="M24.5,32h-15C5.4,32,2,28.6,2,24.5v-15C2,5.4,5.4,2,9.5,2h15C28.6,2,32,5.4,32,9.5v15
		C32,28.6,28.6,32,24.5,32z"/>
</g>
<g>
	<g>
		<path fill="#FFFFFF" d="M22.5,30h-15C3.4,30,0,26.6,0,22.5v-15C0,3.4,3.4,0,7.5,0h15C26.6,0,30,3.4,30,7.5v15
			C30,26.6,26.6,30,22.5,30z"/>
	</g>
	<g>
		<path fill="#EE4722" d="M22.5,1.8c3.2,0,5.8,2.6,5.8,5.8v15c0,3.2-2.6,5.8-5.8,5.8h-15c-3.2,0-5.8-2.6-5.8-5.8v-15
			c0-3.2,2.6-5.8,5.8-5.8H22.5 M22.5,0h-15C3.4,0,0,3.4,0,7.5v15C0,26.6,3.4,30,7.5,30h15c4.1,0,7.5-3.4,7.5-7.5v-15
			C30,3.4,26.6,0,22.5,0L22.5,0z"/>
	</g>
	<g>
		<g>
			<path fill="#3878FF" d="M5.5,25.1c-0.2,0-0.4-0.1-0.5-0.2c-0.3-0.3-0.3-0.8,0-1.1l1.4-1.4c0.3-0.3,0.8-0.3,1.1,0
				c0.3,0.3,0.3,0.8,0,1.1L6,24.8C5.9,25,5.7,25.1,5.5,25.1z M9.7,20.8c-0.2,0-0.4-0.1-0.5-0.2c-0.3-0.3-0.3-0.8,0-1.1l1.4-1.4
				c0.3-0.3,0.8-0.3,1.1,0s0.3,0.8,0,1.1l-1.4,1.4C10.1,20.7,9.9,20.8,9.7,20.8z M14,16.6c-0.2,0-0.4-0.1-0.5-0.2
				c-0.3-0.3-0.3-0.8,0-1.1l1.4-1.4c0.3-0.3,0.8-0.3,1.1,0c0.3,0.3,0.3,0.8,0,1.1l-1.4,1.4C14.4,16.5,14.2,16.6,14,16.6z M18.2,12.3
				c-0.2,0-0.4-0.1-0.5-0.2c-0.3-0.3-0.3-0.8,0-1.1l1.4-1.4c0.3-0.3,0.8-0.3,1.1,0c0.3,0.3,0.3,0.8,0,1.1l-1.4,1.4
				C18.6,12.3,18.4,12.3,18.2,12.3z M22.5,8.1c-0.2,0-0.4-0.1-0.5-0.2c-0.3-0.3-0.3-0.8,0-1.1l1.4-1.4c0.3-0.3,0.8-0.3,1.1,0
				c0.3,0.3,0.3,0.8,0,1.1L23,7.9C22.9,8,22.7,8.1,22.5,8.1z"/>
		</g>
		<g>
			<circle fill="#EE4722" cx="14.9" cy="15.1" r="4.8"/>
		</g>
	</g>
</g>
</svg>
