<?xml version="1.0" encoding="utf-8"?>
<!-- Generator: Adobe Illustrator 18.1.1, SVG Export Plug-In . SVG Version: 6.00 Build 0)  -->
<svg version="1.1" id="Layer_1" xmlns="http://www.w3.org/2000/svg" xmlns:xlink="http://www.w3.org/1999/xlink" x="0px" y="0px"
	 viewBox="387 134 32 32" enable-background="new 387 134 32 32" xml:space="preserve">
<g>
	<g>
		
			<linearGradient id="SVGID_1_" gradientUnits="userSpaceOnUse" x1="17.6873" y1="282.3127" x2="15.4245" y2="284.5755" gradientTransform="matrix(9.375 0 0 -9.375 253 2812.5)">
			<stop  offset="0" style="stop-color:#1B1464;stop-opacity:0.2"/>
			<stop  offset="1" style="stop-color:#EE4722"/>
		</linearGradient>
		<path fill="url(#SVGID_1_)" d="M411.5,166h-15c-4.1,0-7.5-3.4-7.5-7.5v-15c0-4.1,3.4-7.5,7.5-7.5h15c4.1,0,7.5,3.4,7.5,7.5v15
			C419,162.6,415.6,166,411.5,166z"/>
	</g>
	<path fill="#FFFFFF" d="M409.5,164h-15c-4.2,0-7.5-3.4-7.5-7.5v-15c0-4.2,3.3-7.5,7.5-7.5h15c4.1,0,7.5,3.3,7.5,7.5v15
		C417,160.6,413.6,164,409.5,164z"/>
	<path fill="#EE4722" d="M409.5,135.8c3.2,0,5.8,2.6,5.8,5.8v15c0,3.2-2.6,5.8-5.8,5.8h-15c-3.2,0-5.8-2.6-5.8-5.8v-15
		c0-3.2,2.6-5.8,5.8-5.8H409.5 M409.5,134h-15c-4.1,0-7.5,3.4-7.5,7.5v15c0,4.1,3.4,7.5,7.5,7.5h15c4.1,0,7.5-3.4,7.5-7.5v-15
		C417,137.4,413.6,134,409.5,134L409.5,134z"/>
	<path fill="none" d="M402.8,161.2l4.2-5.8c-0.8-0.3-1.6-0.7-2.2-1.3l-4,5.6c-0.4,0.6-1.2,1-1.9,1c-0.5,0-1-0.2-1.4-0.4
		c-0.2-0.1-0.4-0.2-0.6-0.2c-0.3,0-0.7,0.2-0.8,0.4l-1.2,1.7c0,0,0,0.1-0.1,0.1h7.7C402.4,161.9,402.6,161.6,402.8,161.2z"/>
	<g>
		<g>
			<g>
				<g>
					<path fill="#3878FF" d="M394.7,154l-1.5-0.4c-0.3-0.1-0.5-0.3-0.5-0.6l2.3-8.8c0.1-0.3,0.3-0.4,0.7-0.3l1.5,0.4
						c0.3,0.1,0.5,0.4,0.5,0.6l-2.3,8.8C395.2,153.8,395,154,394.7,154z M394,152.7l0.6,0.2l2-7.8l-0.6-0.2L394,152.7z"/>
				</g>
				<g>
					<path fill="#3878FF" d="M397.3,150l-4.4-1.2c-0.3-0.1-0.4-0.3-0.3-0.6l0.8-2.9c0.1-0.3,0.3-0.4,0.6-0.3l4.4,1.2
						c0.3,0.1,0.5,0.4,0.5,0.6l-0.8,2.9C397.9,149.8,397.6,150,397.3,150z M393.7,147.9l3.5,0.9l0.5-1.9l-3.5-0.9L393.7,147.9z"/>
				</g>
			</g>
			<g>
				<path fill="#3878FF" d="M393.4,156c-0.1,0-0.4-0.3-0.3-0.6l0.2-0.7c0-0.1,0.3-0.4,0.6-0.3c0.3,0.1,0.4,0.3,0.3,0.6l-0.2,0.7
					C393.8,155.8,393.5,156,393.4,156z"/>
			</g>
			<g>
				
					<rect x="394.1" y="146.4" transform="matrix(-0.967 -0.2549 0.2549 -0.967 740.6791 390.7955)" fill="#FFFFFF" width="3" height="2"/>
			</g>
		</g>
		<path fill="none" stroke="#3878FF" stroke-width="1.1733" stroke-linejoin="round" stroke-miterlimit="10" d="M411.2,146.3
			c-1.4-1.1-3.2-1.1-4.5-0.2l-6.6-5.2c0-0.7-0.3-1.5-0.9-2c-1-0.8-2.5-0.6-3.3,0.4s-0.6,2.5,0.4,3.3c0.6,0.5,1.4,0.6,2.2,0.4
			l6.6,5.2c-0.5,1.5,0,3.3,1.3,4.4c1.7,1.3,4.2,1.1,5.6-0.7C413.2,150.1,412.9,147.6,411.2,146.3z"/>
		<path fill="#3878FF" d="M409,154.6C409,154.6,409,154.6,409,154.6c-0.4,0-0.7,0-1-0.1c-1.4-0.3-2.6-1.1-3.3-2.2l-4.9,6.8
			c-0.2,0.3-0.6,0.5-1,0.5c-0.2,0-0.5-0.1-0.7-0.2c-0.4-0.3-0.8-0.4-1.3-0.4c-0.7,0-1.4,0.3-1.8,0.9l-1.2,1.7
			c-0.2,0.2-0.3,0.4-0.3,0.7c0.3,0.1,0.7,0.1,1,0.1h0.2c0,0,0-0.1,0.1-0.1l1.2-1.7c0.2-0.3,0.5-0.4,0.8-0.4c0.2,0,0.4,0.1,0.6,0.2
			c0.4,0.3,0.9,0.4,1.4,0.4c0.8,0,1.5-0.4,1.9-1l4-5.6c0.6,0.6,1.4,1,2.2,1.3l-4.2,5.8c-0.2,0.3-0.4,0.7-0.4,1.1h1.2
			c0-0.1,0.1-0.3,0.2-0.4L409,154.6z"/>
	</g>
	<g>
		<path fill="#3878FF" d="M408.8,151.8c-1.3,0-2.4-1.1-2.4-2.4c0-1.3,1.1-2.4,2.4-2.4s2.4,1.1,2.4,2.4
			C411.2,150.7,410.1,151.8,408.8,151.8z M408.8,148.1c-0.7,0-1.2,0.6-1.2,1.2s0.6,1.2,1.2,1.2c0.7,0,1.2-0.6,1.2-1.2
			S409.4,148.1,408.8,148.1z"/>
	</g>
</g>
<polygon fill="#EE4722" points="-786.7,159.4 -786.7,159.4 -786.7,159.4 "/>
<polygon fill="#EE4722" points="-786.7,-121.9 -786.7,-121.9 -786.7,-121.9 "/>
</svg>
