<?xml version="1.0" encoding="utf-8"?>
<!-- Generator: Adobe Illustrator 18.1.1, SVG Export Plug-In . SVG Version: 6.00 Build 0)  -->
<svg version="1.1" id="Layer_1" xmlns="http://www.w3.org/2000/svg" xmlns:xlink="http://www.w3.org/1999/xlink" x="0px" y="0px"
	 viewBox="0 0 64 64" enable-background="new 0 0 64 64" xml:space="preserve">
<path fill="#323132" d="M57.2,15l-23-13.1c-0.8-0.5-1.6-0.7-2.5-0.7s-1.6,0.2-2.5,0.7L6.3,15c-1.5,0.8-2.5,2.5-2.5,4.3v26.3
	c0,1.8,1,3.4,2.5,4.3l23,13.1c0.8,0.5,1.6,0.7,2.5,0.7c0.8,0,1.6-0.2,2.5-0.7l23-13.1c1.5-0.8,2.5-2.5,2.5-4.3V19.2
	C59.6,17.4,58.7,15.8,57.2,15z"/>
<g id="Layer_3" display="none">
	<path display="inline" fill="#3878FF" d="M41.4,19.2c-1.5-0.7-3.6,0.3-5.2,2.5l-6.7-3.1c0-1.2-0.5-2.1-1.3-2.5
		c-1.3-0.8-3.4,0.8-4.4,3.3c-0.7,1.2-0.8,2.5-0.7,3.4c0.2,1.2,0.5,1.8,1.2,2.1c0.8,0.3,1.6,0.2,2.6-0.7l6.7,3.1
		c-0.5,2.8,0.2,5.1,1.8,5.7c0.8,0.5,2,0.3,3.1-0.3c1.5-0.8,3-2.6,3.9-4.8C44.1,24.2,43.7,20.2,41.4,19.2z M41.3,27.6
		c-0.7,1.6-1.8,3-3,3.6c-0.8,0.5-1.6,0.5-2.3,0.3c-1.2-0.7-1.6-2.5-1.2-4.8c0.2-0.3,0-0.7-0.2-0.8l-7.4-3.4c-0.2,0-0.3,0-0.3,0
		l-0.2,0.2c-0.7,0.7-1.3,0.8-1.8,0.7c-0.3-0.2-0.7-0.7-0.7-1.3s0-1.5,0.3-2.1c0.7-1.5,2-2.5,2.8-2c0.5,0.2,0.8,1,0.8,1.8
		c0,0.3,0,0.5,0.2,0.7l7.4,3.4c0.2,0.2,0.5,0,0.8-0.3c1.3-1.8,3.1-2.8,4.3-2.1C42.3,21.9,42.6,24.8,41.3,27.6z"/>
	<path display="inline" fill="#3878FF" d="M38.3,22.7c-1.5,0.8-2.6,3.1-2.6,5.1s1.2,2.8,2.6,2c1.5-0.8,2.6-3.1,2.6-5.1
		S39.8,21.9,38.3,22.7z M38.3,27.9c-0.8,0.5-1.3,0-1.3-1c0-1,0.7-2.1,1.3-2.6c0.8-0.5,1.3,0,1.3,1C39.8,26.5,39.1,27.6,38.3,27.9z"
		/>
</g>
<g id="Layer_2">
</g>
<path fill="none" stroke="#3878FF" stroke-width="3" stroke-linejoin="round" stroke-miterlimit="10" d="M54.7,18.4"/>
<path fill="#EE4722" d="M31.7,6.1l23,13.1v26.3l-23,13.1l-23-13.1V19.2L31.7,6.1 M31.7,1.2c-0.8,0-1.6,0.2-2.5,0.7L6.3,15
	c-1.5,0.8-2.5,2.5-2.5,4.3v26.3c0,1.8,1,3.4,2.5,4.3l23,13.1c0.8,0.5,1.6,0.7,2.5,0.7c0.8,0,1.6-0.2,2.5-0.7l23-13.1
	c1.5-0.8,2.5-2.5,2.5-4.3V19.2c0-1.8-1-3.4-2.5-4.3l-23-13.1C33.4,1.3,32.6,1.2,31.7,1.2L31.7,1.2z"/>
<path fill="#EE4722" d="M36.2,46.1L36.2,46.1C36,46.3,36,46.3,36.2,46.1z"/>
<path fill="none" d="M23.7,28.1L23.7,28.1L23.7,28.1L23.7,28.1z"/>
<path fill="#3878FF" d="M20.4,29.9L20.4,29.9L20.4,29.9z"/>
<path fill="#3878FF" d="M20.4,29.9L20.4,29.9L20.4,29.9z"/>
<path fill="#3878FF" d="M18.9,40.6L18.9,40.6L18.9,40.6z"/>
<path fill="#3878FF" d="M22.4,40.6L22.4,40.6L22.4,40.6z"/>
<path fill="#3878FF" d="M17.3,35.1L17.3,35.1L17.3,35.1L17.3,35.1z"/>
<path fill="#3878FF" d="M17.3,35.1L17.3,35.1L17.3,35.1z"/>
<path fill="#EE4722" d="M18.9,40.6L18.9,40.6L18.9,40.6z"/>
<g>
	
		<polyline fill="none" stroke="#3F7DFE" stroke-width="2" stroke-linecap="round" stroke-linejoin="round" stroke-miterlimit="10" points="
		19,40 19,24.7 15.4,21.2 	"/>
	
		<line fill="none" stroke="#3F7DFE" stroke-width="1.7885" stroke-linecap="round" stroke-linejoin="round" stroke-miterlimit="10" x1="41.7" y1="40.2" x2="18.9" y2="40.3"/>
	
		<circle fill="none" stroke="#3F7DFE" stroke-width="1.6097" stroke-linecap="round" stroke-linejoin="round" stroke-miterlimit="10" cx="23.6" cy="45.7" r="3.1"/>
	
		<circle fill="none" stroke="#3F7DFE" stroke-width="1.6097" stroke-linecap="round" stroke-linejoin="round" stroke-miterlimit="10" cx="39.7" cy="45.7" r="3.1"/>
	<path fill="none" stroke="#EE4722" stroke-width="2.1014" stroke-miterlimit="10" d="M31.1,36.8h-6.6c-0.7,0-1.2-0.6-1.2-1.2V29
		c0-0.7,0.6-1.2,1.2-1.2h6.6c0.7,0,1.2,0.6,1.2,1.2v6.6C32.3,36.3,31.8,36.8,31.1,36.8z"/>
	<path fill="none" stroke="#EE4722" stroke-width="2.1014" stroke-miterlimit="10" d="M44,36.8h-6.6c-0.7,0-1.2-0.6-1.2-1.2V29
		c0-0.7,0.6-1.2,1.2-1.2H44c0.7,0,1.2,0.6,1.2,1.2v6.6C45.2,36.3,44.7,36.8,44,36.8z"/>
	<path fill="none" stroke="#EE4722" stroke-width="1.8779" stroke-miterlimit="10" d="M37,25h-5.4c-0.6,0-1-0.5-1-1v-5.4
		c0-0.6,0.5-1,1-1H37c0.6,0,1,0.5,1,1V24C38,24.5,37.5,25,37,25z"/>
</g>
</svg>
