<?xml version="1.0" encoding="utf-8"?>
<!-- Generator: Adobe Illustrator 18.1.1, SVG Export Plug-In . SVG Version: 6.00 Build 0)  -->
<svg version="1.1" id="Layer_1" xmlns="http://www.w3.org/2000/svg" xmlns:xlink="http://www.w3.org/1999/xlink" x="0px" y="0px"
	 viewBox="0 0 32 32" enable-background="new 0 0 32 32" xml:space="preserve">
<g>
	<linearGradient id="SVGID_1_" gradientUnits="userSpaceOnUse" x1="31.8183" y1="31.8183" x2="10.6051" y2="10.6051">
		<stop  offset="0" style="stop-color:#1B1464;stop-opacity:0.2"/>
		<stop  offset="1" style="stop-color:#EE4722"/>
	</linearGradient>
	<path fill="url(#SVGID_1_)" d="M24.5,32h-15C5.4,32,2,28.6,2,24.5v-15C2,5.4,5.4,2,9.5,2h15C28.6,2,32,5.4,32,9.5v15
		C32,28.6,28.6,32,24.5,32z"/>
</g>
<path fill="#FFFFFF" d="M22.5,30h-15C3.3,30,0,26.6,0,22.5v-15C0,3.3,3.3,0,7.5,0h15C26.6,0,30,3.3,30,7.5v15
	C30,26.6,26.6,30,22.5,30z"/>
<path fill="#EE4722" d="M22.5,1.8c3.1,0,5.8,2.6,5.8,5.8v15c0,3.1-2.6,5.8-5.8,5.8h-15c-3.2,0-5.8-2.6-5.8-5.8v-15
	c0-3.2,2.6-5.8,5.8-5.8H22.5 M22.5,0h-15C3.3,0,0,3.3,0,7.5v15C0,26.6,3.3,30,7.5,30h15c4.1,0,7.5-3.4,7.5-7.5v-15
	C30,3.3,26.6,0,22.5,0L22.5,0z"/>
<g>
	<g>
		<path fill="#3878FF" d="M8.2,24.9c-0.2,0-0.3-0.1-0.5-0.2c-0.2-0.2-0.3-0.5-0.3-0.8l0.3-1c0.1-0.4,0.5-0.6,0.9-0.5
			c0.2,0.1,0.4,0.2,0.5,0.4c0.2,0,0.4,0.2,0.5,0.4c0.2,0.4,0.1,0.8-0.3,1l-0.9,0.5C8.4,24.9,8.3,24.9,8.2,24.9z"/>
	</g>
	<g>
		<path fill="#3878FF" d="M12.2,22.6c-0.3,0-0.5-0.1-0.6-0.4c-0.2-0.4-0.1-0.8,0.3-1l1.6-0.9c0.4-0.2,0.8-0.1,1,0.3
			c0.2,0.4,0.1,0.8-0.3,1l-1.6,0.9C12.5,22.5,12.4,22.6,12.2,22.6z M17,19.8c-0.3,0-0.5-0.1-0.6-0.4c-0.2-0.4-0.1-0.8,0.3-1l1.6-0.9
			c0.4-0.2,0.8-0.1,1,0.3c0.2,0.4,0.1,0.8-0.3,1l-1.6,0.9C17.3,19.8,17.2,19.8,17,19.8z"/>
	</g>
	<g>
		<path fill="#3878FF" d="M21.8,17c-0.3,0-0.5-0.1-0.6-0.4c-0.2-0.4-0.1-0.8,0.3-1l0,0l0,0c-0.3-0.3-0.3-0.8,0-1.1
			c0.3-0.3,0.8-0.3,1.1,0l0.7,0.7c0.2,0.2,0.2,0.4,0.2,0.6c0,0.2-0.2,0.4-0.4,0.5l-0.9,0.5C22.1,17,21.9,17,21.8,17z"/>
	</g>
	<g>
		<path fill="#3878FF" d="M18.9,12.5c-0.2,0-0.4-0.1-0.5-0.2l-1.6-1.6c-0.3-0.3-0.3-0.8,0-1.1c0.3-0.3,0.8-0.3,1.1,0l1.6,1.6
			c0.3,0.3,0.3,0.8,0,1.1C19.2,12.5,19.1,12.5,18.9,12.5z"/>
	</g>
	<g>
		<path fill="#3878FF" d="M13.2,7.9c-0.1,0-0.1,0-0.2,0c-0.4-0.1-0.6-0.5-0.5-0.9l0.3-1c0.1-0.3,0.3-0.5,0.5-0.5
			c0.3-0.1,0.5,0,0.7,0.2l0.7,0.7c0.3,0.3,0.3,0.8,0,1.1c-0.2,0.2-0.6,0.3-0.9,0.1C13.7,7.8,13.5,7.9,13.2,7.9z"/>
	</g>
	<g>
		<path fill="#3878FF" d="M9.6,20c-0.1,0-0.1,0-0.2,0C9,19.8,8.8,19.4,8.9,19l0.6-2c0.1-0.4,0.5-0.6,0.9-0.5
			c0.4,0.1,0.6,0.5,0.5,0.9l-0.6,2C10.3,19.7,10,20,9.6,20z M11.4,13.9c-0.1,0-0.1,0-0.2,0c-0.4-0.1-0.6-0.5-0.5-0.9l0.6-2
			c0.1-0.4,0.5-0.6,0.9-0.5c0.4,0.1,0.6,0.5,0.5,0.9l-0.6,2C12.1,13.7,11.8,13.9,11.4,13.9z"/>
	</g>
</g>
<circle fill="#EE4722" cx="13.4" cy="6.3" r="2.2"/>
<circle fill="#EE4722" cx="22.4" cy="15.9" r="2.2"/>
<circle fill="#EE4722" cx="8.4" cy="24.4" r="2.2"/>
</svg>
