<?xml version="1.0" encoding="utf-8"?>
<!-- Generator: Adobe Illustrator 18.1.1, SVG Export Plug-In . SVG Version: 6.00 Build 0)  -->
<svg version="1.1" id="Layer_1" xmlns="http://www.w3.org/2000/svg" xmlns:xlink="http://www.w3.org/1999/xlink" x="0px" y="0px"
	 viewBox="0 0 500 500" enable-background="new 0 0 500 500" xml:space="preserve">
<path fill="#323132" d="M446.7,116.9L267.2,14.3c-6.4-3.8-12.8-5.1-19.2-5.1s-12.8,1.3-19.2,5.1L49.3,116.9
	c-11.5,6.4-19.2,19.2-19.2,33.3v205.1c0,14.1,7.7,26.9,19.2,33.3l179.5,102.6c6.4,3.8,12.8,5.1,19.2,5.1s12.8-1.3,19.2-5.1
	l179.5-102.6c11.5-6.4,19.2-19.2,19.2-33.3V150.2C465.9,136.1,458.3,123.3,446.7,116.9z"/>
<g>
	<g>
		<path fill="none" stroke="#3878FF" stroke-width="3" stroke-linejoin="round" stroke-miterlimit="10" d="M427.5,150.2"/>
	</g>
</g>
<g>
	<g>
		<g>
			<path fill="#EE4722" d="M248,47.7l179.5,102.6v205.1L248,457.9L68.5,355.4V150.2L248,47.7 M248,9.2c-6.4,0-12.8,1.3-19.2,5.1
				L49.3,116.9c-11.5,6.4-19.2,19.2-19.2,33.3v205.1c0,14.1,7.7,26.9,19.2,33.3l179.5,102.6c6.4,3.8,12.8,5.1,19.2,5.1
				c6.4,0,12.8-1.3,19.2-5.1l179.5-102.6c11.5-6.4,19.2-19.2,19.2-33.3V150.2c0-14.1-7.7-26.9-19.2-33.3L267.2,14.3
				C260.8,10.5,254.4,9.2,248,9.2L248,9.2z"/>
		</g>
	</g>
</g>
<g>
	<path fill="#EE4722" d="M239,222c-25.6,34.6-33.3,82.1-17.9,109c7.7,12.8,17.9,19.2,32.1,19.2c17.9,0,35.9-11.5,51.3-32.1
		c25.6-34.6,33.3-82.1,17.9-109c-7.7-12.8-17.9-19.2-32.1-19.2C273.6,188.7,254.4,200.2,239,222z M303.1,219.5
		c9,16.7,5.1,53.8-16.7,83.3c-12.8,16.7-25.6,23.1-33.3,23.1c-5.1,0-9-2.6-11.5-7.7c-2.6-3.8-3.8-10.3-5.1-16.7
		c5.1-5.1,10.3-10.3,15.4-16.7c14.1-19.2,24.4-44.9,24.4-67.9c5.1-3.8,10.3-5.1,14.1-5.1C296.7,211.8,300.6,214.3,303.1,219.5z
		 M263.4,229.7c-2.6,16.7-10.3,34.6-20.5,48.7c-1.3,1.3-2.6,3.8-3.8,5.1c2.6-15.4,9-32.1,20.5-47.4
		C259.5,233.6,260.8,231,263.4,229.7z"/>
	<path fill="#EE4722" d="M363.4,145.1c0-1.3-1.3-1.3-2.6-2.6l-48.7-29.5c0,0-1.3,0-2.6-1.3l-84.6-16.7h-1.3c-3.8-1.3-7.7,0-10.3,3.8
		l-84.6,114.1c0,0,0,1.3-1.3,1.3c-1.3,1.3-2.6,3.8-2.6,6.4V349c0,3.8,1.3,6.4,3.8,7.7l48.7,32.1h1.3c1.3,2.6,3.8,3.8,6.4,3.8
		l84.6,16.7c1.3,0,1.3,0,2.6,0c3.8,0,7.7-1.3,9-5.1L365.9,290c1.3-2.6,2.6-3.8,2.6-6.4V154.1C368.5,150.2,367.2,146.4,363.4,145.1z
		 M326.2,136.1l-50-10.3l-1.3-1.3l-16.7-10.3l48.7,9L326.2,136.1z M223.6,118.2l32.1,19.2l-73.1,98.7l-32.1-19.2L223.6,118.2z
		 M173.6,364.3l-29.5-19.2V240l29.5,17.9V364.3z M345.4,282.3l-78.2,105.1L198,374.6V256.7l78.2-105.1l69.2,12.8V282.3z"/>
</g>
</svg>
