<?xml version="1.0" encoding="utf-8"?>
<!-- Generator: Adobe Illustrator 18.1.1, SVG Export Plug-In . SVG Version: 6.00 Build 0)  -->
<svg version="1.1" id="Layer_1" xmlns="http://www.w3.org/2000/svg" xmlns:xlink="http://www.w3.org/1999/xlink" x="0px" y="0px"
	 viewBox="0 0 500 500" enable-background="new 0 0 500 500" xml:space="preserve">
<path fill="#323132" d="M446.7,116.9L267.2,14.3c-6.4-3.8-12.8-5.1-19.2-5.1s-12.8,1.3-19.2,5.1L49.3,116.9
	c-11.5,6.4-19.2,19.2-19.2,33.3v205.1c0,14.1,7.7,26.9,19.2,33.3l179.5,102.6c6.4,3.8,12.8,5.1,19.2,5.1s12.8-1.3,19.2-5.1
	l179.5-102.6c11.5-6.4,19.2-19.2,19.2-33.3V150.2C465.9,136.1,458.3,123.3,446.7,116.9z"/>
<g>
	<path fill="none" stroke="#3878FF" stroke-width="3" stroke-linejoin="round" stroke-miterlimit="10" d="M427.5,150.2"/>
</g>
<g>
	<g>
		<path fill="#3878FF" d="M248,47.7l179.5,102.6v205.1L248,457.9L68.5,355.4V150.2L248,47.7 M248,9.2c-6.4,0-12.8,1.3-19.2,5.1
			L49.3,116.9c-11.5,6.4-19.2,19.2-19.2,33.3v205.1c0,14.1,7.7,26.9,19.2,33.3l179.5,102.6c6.4,3.8,12.8,5.1,19.2,5.1
			c6.4,0,12.8-1.3,19.2-5.1l179.5-102.6c11.5-6.4,19.2-19.2,19.2-33.3V150.2c0-14.1-7.7-26.9-19.2-33.3L267.2,14.3
			C260.8,10.5,254.4,9.2,248,9.2L248,9.2z"/>
	</g>
</g>
<path fill="#3878FF" d="M318.5,151.5c0-2.6-2.6-5.1-5.1-6.4l-2.6-1.3l0,0h-1.3L204.4,90c-2.6-1.3-6.4-1.3-9,0s-3.8,3.8-3.8,7.7
	v221.8c0,2.6,1.3,6.4,5.1,7.7l25.6,14.1v62.8c0,6.4,3.8,12.8,10.3,16.7c2.6,1.3,6.4,2.6,9,2.6c3.8,0,6.4-1.3,10.3-2.6l59-35.9
	c5.1-3.8,9-10.3,9-16.7V160.5C319.8,156.7,319.8,154.1,318.5,151.5z M300.6,366.9l-59,35.9V195.1l59-34.6V366.9z"/>
<g>
	<path fill="#3878FF" d="M240.3,297.7c-2.6,0-5.1-1.3-6.4-3.8c-2.6-3.8-1.3-9,2.6-10.3l16.7-9c3.8-2.6,9-1.3,10.3,2.6
		c2.6,3.8,1.3,9-2.6,10.3l-16.7,9C242.9,297.7,241.6,297.7,240.3,297.7z"/>
</g>
</svg>
