<?xml version="1.0" encoding="utf-8"?>
<!-- Generator: Adobe Illustrator 18.1.1, SVG Export Plug-In . SVG Version: 6.00 Build 0)  -->
<svg version="1.1" id="Layer_1" xmlns="http://www.w3.org/2000/svg" xmlns:xlink="http://www.w3.org/1999/xlink" x="0px" y="0px"
	 viewBox="0 0 60 60" enable-background="new 0 0 60 60" xml:space="preserve">
<g>
	<path fill="#FFFFFF" d="M45,60H15C6.7,60,0,53.3,0,45V15C0,6.7,6.7,0,15,0h30c8.3,0,15,6.7,15,15v30C60,53.3,53.3,60,45,60z"/>
</g>
<g>
	<path fill="#EE4722" d="M45,3.5c6.3,0,11.5,5.2,11.5,11.5v30c0,6.3-5.2,11.5-11.5,11.5H15C8.7,56.5,3.5,51.3,3.5,45V15
		C3.5,8.7,8.7,3.5,15,3.5H45 M45,0H15C6.7,0,0,6.7,0,15v30c0,8.3,6.7,15,15,15h30c8.3,0,15-6.7,15-15V15C60,6.7,53.3,0,45,0L45,0z"
		/>
</g>
<g>
	<g>
		<path fill="#EE4722" d="M28.4,15.4c-0.4,0-0.8-0.2-1.1-0.5l-1.4-1.4c-0.6-0.6-0.6-1.5,0-2.1c0.6-0.6,1.5-0.6,2.1,0l1.4,1.4
			c0.6,0.6,0.6,1.5,0,2.1C29.1,15.2,28.8,15.4,28.4,15.4z"/>
	</g>
	<g>
		<path fill="#EE4722" d="M37.7,25.1c-0.4,0-0.8-0.2-1.1-0.5l-3.1-3.2c-0.6-0.6-0.6-1.5,0-2.1c0.6-0.6,1.5-0.6,2.1,0l3.1,3.2
			c0.6,0.6,0.6,1.5,0,2.1C38.5,24.9,38.1,25.1,37.7,25.1z"/>
	</g>
	<g>
		<path fill="#EE4722" d="M43.6,34c-0.5,0-1-0.3-1.3-0.7c-0.4-0.7-0.2-1.6,0.5-2.1l0.1,0l-0.1-0.1c-0.6-0.6-0.6-1.5,0-2.1
			c0.6-0.6,1.5-0.6,2.1,0l1.4,1.4c0.3,0.3,0.5,0.8,0.4,1.2c-0.1,0.5-0.3,0.9-0.7,1.1l-1.7,1C44.2,33.9,43.9,34,43.6,34z"/>
	</g>
	<g>
		<path fill="#EE4722" d="M24.5,45.1c-0.5,0-1-0.3-1.3-0.7c-0.4-0.7-0.2-1.6,0.5-2l3.2-1.9c0.7-0.4,1.6-0.2,2.1,0.5
			c0.4,0.7,0.2,1.6-0.5,2l-3.2,1.9C25,45.1,24.7,45.1,24.5,45.1z M34.1,39.6c-0.5,0-1-0.3-1.3-0.7c-0.4-0.7-0.2-1.6,0.5-2l3.2-1.9
			c0.7-0.4,1.6-0.2,2,0.5c0.4,0.7,0.2,1.6-0.5,2l-3.2,1.9C34.6,39.5,34.3,39.6,34.1,39.6z"/>
	</g>
	<g>
		<path fill="#EE4722" d="M16.3,49.9c-0.5,0-1-0.3-1.3-0.7c-0.4-0.7-0.2-1.6,0.5-2l1.7-1c0.7-0.4,1.6-0.2,2.1,0.5
			c0.4,0.7,0.2,1.6-0.5,2l-1.7,1C16.9,49.8,16.6,49.9,16.3,49.9z"/>
	</g>
</g>
<g>
	<circle fill="#EE4722" cx="26.7" cy="12.7" r="4.4"/>
</g>
<g>
	<circle fill="#EE4722" cx="44.7" cy="31.7" r="4.4"/>
</g>
<g>
	<circle fill="#EE4722" cx="16.7" cy="48.7" r="4.4"/>
</g>
</svg>
