<?xml version="1.0" encoding="utf-8"?>
<!-- Generator: Adobe Illustrator 18.1.1, SVG Export Plug-In . SVG Version: 6.00 Build 0)  -->
<svg version="1.1" id="Layer_1" xmlns="http://www.w3.org/2000/svg" xmlns:xlink="http://www.w3.org/1999/xlink" x="0px" y="0px"
	 viewBox="0 0 500 500" enable-background="new 0 0 500 500" xml:space="preserve">
<path fill="#323132" d="M446.7,116.9L267.2,14.3c-6.4-3.8-12.8-5.1-19.2-5.1s-12.8,1.3-19.2,5.1L49.3,116.9
	c-11.5,6.4-19.2,19.2-19.2,33.3v205.1c0,14.1,7.7,26.9,19.2,33.3l179.5,102.6c6.4,3.8,12.8,5.1,19.2,5.1s12.8-1.3,19.2-5.1
	l179.5-102.6c11.5-6.4,19.2-19.2,19.2-33.3V150.2C465.9,136.1,458.3,123.3,446.7,116.9z"/>
<g>
	<path fill="none" stroke="#3878FF" stroke-width="3" stroke-linejoin="round" stroke-miterlimit="10" d="M427.5,150.2"/>
</g>
<g>
	<path fill="none" stroke="#3878FF" stroke-width="3" stroke-linejoin="round" stroke-miterlimit="10" d="M381.3,177.2"/>
</g>
<g>
	<path fill="#3878FF" d="M248,47.7l179.5,102.6v205.1L248,457.9L68.5,355.4V150.2L248,47.7 M248,9.2c-6.4,0-12.8,1.3-19.2,5.1
		L49.3,116.9c-11.5,6.4-19.2,19.2-19.2,33.3v205.1c0,14.1,7.7,26.9,19.2,33.3l179.5,102.6c6.4,3.8,12.8,5.1,19.2,5.1
		c6.4,0,12.8-1.3,19.2-5.1l179.5-102.6c11.5-6.4,19.2-19.2,19.2-33.3V150.2c0-14.1-7.7-26.9-19.2-33.3L267.2,14.3
		C260.8,10.5,254.4,9.2,248,9.2L248,9.2z"/>
</g>
<g>
	<path fill="#3878FF" d="M248,259.2c-2.6,0-3.8,0-6.4-1.3L62.1,161.8c-6.4-3.8-7.7-11.5-5.1-17.9c3.8-6.4,11.5-9,17.9-5.1
		l179.5,96.2c6.4,3.8,9,11.5,5.1,17.9C257,256.7,253.1,259.2,248,259.2z"/>
</g>
<g>
	<path fill="#3878FF" d="M248,470.8c-7.7,0-12.8-5.1-12.8-12.8V246.4c0-5.1,2.6-9,6.4-11.5l179.5-96.2c6.4-3.8,14.1-1.3,17.9,5.1
		c2.6,6.4,1.3,14.1-5.1,17.9l-173.1,92.3v203.8C260.8,464.3,255.7,470.8,248,470.8z"/>
</g>
<g>
	<rect x="132.6" y="192.6" fill="#3878FF" width="21.8" height="210.3"/>
</g>
<g>
	<path fill="#3878FF" d="M248,223.3c-3.8,0-7.7-3.8-7.7-7.7V64.3c0-3.8,3.8-7.7,7.7-7.7s7.7,3.8,7.7,7.7v150
		C255.7,219.5,251.8,223.3,248,223.3z"/>
</g>
<g>
	<path fill="#3878FF" d="M386.5,151.5H112.1c-5.1,0-7.7-3.8-7.7-7.7s2.6-7.7,7.7-7.7h274.4c3.8,0,7.7,3.8,7.7,7.7
		S390.3,151.5,386.5,151.5z"/>
</g>
</svg>
