<?xml version="1.0" encoding="utf-8"?>
<!-- Generator: Adobe Illustrator 18.1.1, SVG Export Plug-In . SVG Version: 6.00 Build 0)  -->
<svg version="1.1" id="Layer_1" xmlns="http://www.w3.org/2000/svg" xmlns:xlink="http://www.w3.org/1999/xlink" x="0px" y="0px"
	 viewBox="0 0 60 60" enable-background="new 0 0 60 60" xml:space="preserve">
<g>
	<g>
		<g>
			<path fill="#FFFFFF" d="M15,58.3C7.7,58.3,1.8,52.3,1.8,45V15C1.8,7.7,7.7,1.8,15,1.8h30c7.3,0,13.3,5.9,13.3,13.3v30
				c0,7.3-5.9,13.3-13.3,13.3H15z"/>
		</g>
		<g>
			<path fill="#EE4722" d="M45,3.5c6.3,0,11.5,5.2,11.5,11.5v30c0,6.3-5.2,11.5-11.5,11.5H15C8.7,56.5,3.5,51.3,3.5,45V15
				C3.5,8.7,8.7,3.5,15,3.5H45 M45,0H15C6.7,0,0,6.7,0,15v30c0,8.3,6.7,15,15,15h30c8.3,0,15-6.7,15-15V15C60,6.7,53.3,0,45,0L45,0z
				"/>
		</g>
	</g>
	<g>
		<g>
			<path fill="#FFFFFF" d="M14.1,56.7V18.5c0-0.6,0.4-1,1-1h29.9c0.6,0,1,0.4,1,1v38.2"/>
			<path fill="#EE4722" d="M45.9,58.2c-0.8,0-1.5-0.7-1.5-1.5V19H15.6v37.7c0,0.8-0.7,1.5-1.5,1.5s-1.5-0.7-1.5-1.5V18.5
				c0-1.4,1.1-2.5,2.5-2.5h29.9c1.4,0,2.5,1.1,2.5,2.5v38.2C47.4,57.5,46.8,58.2,45.9,58.2z"/>
		</g>
		<g>
			<line fill="#FFFFFF" x1="30" y1="56.7" x2="29.9" y2="18"/>
			<path fill="#EE4722" d="M30,58c-0.8,0-1.5-0.6-1.5-1.4l-0.1-38.4c0-0.8,0.7-1.2,1.5-1.2c0,0,0,0,0,0c0.8,0,1.5,0.4,1.5,1.2
				l0.1,38.5C31.5,57.5,30.8,58,30,58C30,58,30,58,30,58z"/>
		</g>
	</g>
	<g>
		<g>
			<polygon fill="#FFFFFF" points="21.7,12 24.9,7.5 28.1,12 			"/>
		</g>
		<g>
			<path fill="#3878FF" d="M24.9,9.2l1.3,1.8h-2.6L24.9,9.2 M24.9,6.1c-0.1,0-0.3,0.1-0.4,0.2l-4.1,5.8c-0.3,0.4,0,0.9,0.4,0.9H29
				c0.4,0,0.7-0.6,0.4-0.9l-4.1-5.8C25.2,6.2,25,6.1,24.9,6.1L24.9,6.1z"/>
		</g>
	</g>
	<g>
		<g>
			<polygon fill="#FFFFFF" points="31,7.1 37.5,7.1 34.2,11.6 			"/>
		</g>
		<g>
			<path fill="#3878FF" d="M35.5,8.1l-1.3,1.8L33,8.1H35.5 M38.4,6.1h-8.2c-0.4,0-0.7,0.6-0.4,0.9l4.1,5.8C34,13,34.1,13,34.2,13
				s0.3-0.1,0.4-0.2L38.7,7C39,6.6,38.8,6.1,38.4,6.1L38.4,6.1z"/>
		</g>
	</g>
</g>
<g>
	<g>
		<path fill="#EE4722" d="M45,3.5c6.3,0,11.5,5.2,11.5,11.5v30c0,6.3-5.2,11.5-11.5,11.5H15C8.7,56.5,3.5,51.3,3.5,45V15
			C3.5,8.7,8.7,3.5,15,3.5H45 M45,0H15C6.7,0,0,6.7,0,15v30c0,8.3,6.7,15,15,15h30c8.3,0,15-6.7,15-15V15C60,6.7,53.3,0,45,0L45,0z"
			/>
	</g>
	<g>
		<g>
			<path fill="#EE4722" d="M45.9,58.2c-0.8,0-1.5-0.7-1.5-1.5V19H15.6v37.7c0,0.8-0.7,1.5-1.5,1.5s-1.5-0.7-1.5-1.5V18.5
				c0-1.4,1.1-2.5,2.5-2.5h29.9c1.4,0,2.5,1.1,2.5,2.5v38.2C47.4,57.5,46.8,58.2,45.9,58.2z"/>
		</g>
		<g>
			<path fill="#EE4722" d="M30,58c-0.8,0-1.5-0.6-1.5-1.4l-0.1-38.4c0-0.8,0.7-1.2,1.5-1.2c0,0,0,0,0,0c0.8,0,1.5,0.4,1.5,1.2
				l0.1,38.5C31.5,57.5,30.8,58,30,58C30,58,30,58,30,58z"/>
		</g>
	</g>
	<g>
		<path fill="#3878FF" d="M24.9,9.2l1.3,1.8h-2.6L24.9,9.2 M24.9,6.1c-0.1,0-0.3,0.1-0.4,0.2l-4.1,5.8c-0.3,0.4,0,0.9,0.4,0.9H29
			c0.4,0,0.7-0.6,0.4-0.9l-4.1-5.8C25.2,6.2,25,6.1,24.9,6.1L24.9,6.1z"/>
	</g>
	<g>
		<path fill="#3878FF" d="M35.5,8.1l-1.3,1.8L33,8.1H35.5 M38.4,6.1h-8.2c-0.4,0-0.7,0.6-0.4,0.9l4.1,5.8C34,13,34.1,13,34.2,13
			s0.3-0.1,0.4-0.2L38.7,7C39,6.6,38.8,6.1,38.4,6.1L38.4,6.1z"/>
	</g>
</g>
</svg>
