<?xml version="1.0" encoding="utf-8"?>
<!-- Generator: Adobe Illustrator 18.1.1, SVG Export Plug-In . SVG Version: 6.00 Build 0)  -->
<svg version="1.1" id="Layer_1" xmlns="http://www.w3.org/2000/svg" xmlns:xlink="http://www.w3.org/1999/xlink" x="0px" y="0px"
	 viewBox="0 0 500 500" enable-background="new 0 0 500 500" xml:space="preserve">
<path fill="#323132" d="M446.7,116.9L267.2,14.3c-6.4-3.8-12.8-5.1-19.2-5.1s-12.8,1.3-19.2,5.1L49.3,116.9
	c-11.5,6.4-19.2,19.2-19.2,33.3v205.1c0,14.1,7.7,26.9,19.2,33.3l179.5,102.6c6.4,3.8,12.8,5.1,19.2,5.1s12.8-1.3,19.2-5.1
	l179.5-102.6c11.5-6.4,19.2-19.2,19.2-33.3V150.2C465.9,136.1,458.3,123.3,446.7,116.9z"/>
<g id="Layer_3" display="none">
	<path display="inline" fill="#3878FF" d="M323.6,150.2c-11.5-5.1-28.2,2.6-41,19.2l-52.6-24.4c0-9-3.8-16.7-10.3-19.2
		c-10.3-6.4-26.9,6.4-34.6,25.6c-5.1,9-6.4,19.2-5.1,26.9c1.3,9,3.8,14.1,9,16.7c6.4,2.6,12.8,1.3,20.5-5.1l52.6,24.4
		c-3.8,21.8,1.3,39.7,14.1,44.9c6.4,3.8,15.4,2.6,24.4-2.6c11.5-6.4,23.1-20.5,30.8-37.2C344.2,188.7,341.6,157.9,323.6,150.2z
		 M322.4,215.6c-5.1,12.8-14.1,23.1-23.1,28.2c-6.4,3.8-12.8,3.8-17.9,2.6c-9-5.1-12.8-19.2-9-37.2c1.3-2.6,0-5.1-1.3-6.4
		l-57.7-26.9c-1.3,0-2.6,0-2.6,0l-1.3,1.3c-5.1,5.1-10.3,6.4-14.1,5.1c-2.6-1.3-5.1-5.1-5.1-10.3s0-11.5,2.6-16.7
		c5.1-11.5,15.4-19.2,21.8-15.4c3.8,1.3,6.4,7.7,6.4,14.1c0,2.6,0,3.8,1.3,5.1l57.7,26.9c1.3,1.3,3.8,0,6.4-2.6
		c10.3-14.1,24.4-21.8,33.3-16.7C330.1,170.8,332.6,193.8,322.4,215.6z"/>
	<path display="inline" fill="#3878FF" d="M299.3,177.2c-11.5,6.4-20.5,24.4-20.5,39.7s9,21.8,20.5,15.4
		c11.5-6.4,20.5-24.4,20.5-39.7S310.8,170.8,299.3,177.2z M299.3,218.2c-6.4,3.8-10.3,0-10.3-7.7s5.1-16.7,10.3-20.5
		c6.4-3.8,10.3,0,10.3,7.7C310.8,206.7,305.7,215.6,299.3,218.2z"/>
</g>
<g id="Layer_2">
</g>
<g id="Layer_1_1_">
	<g>
		<g>
			<g>
				<path fill="none" stroke="#3878FF" stroke-width="3" stroke-linejoin="round" stroke-miterlimit="10" d="M427.5,143.8"/>
			</g>
		</g>
		<g>
			<g>
				<g>
					<path fill="#EE4722" d="M248,47.7l179.5,102.6v205.1L248,457.9L68.5,355.4V150.2L248,47.7 M248,9.2c-6.4,0-12.8,1.3-19.2,5.1
						L49.3,116.9c-11.5,6.4-19.2,19.2-19.2,33.3v205.1c0,14.1,7.7,26.9,19.2,33.3l179.5,102.6c6.4,3.8,12.8,5.1,19.2,5.1
						c6.4,0,12.8-1.3,19.2-5.1l179.5-102.6c11.5-6.4,19.2-19.2,19.2-33.3V150.2c0-14.1-7.7-26.9-19.2-33.3L267.2,14.3
						C260.8,10.5,254.4,9.2,248,9.2L248,9.2z"/>
				</g>
			</g>
		</g>
		<path fill="#EE4722" d="M282.6,360.5L282.6,360.5C281.3,361.8,281.3,361.8,282.6,360.5z"/>
		<path fill="none" d="M201.8,120.8c-2.6-1.3-6.4-2.6-7.7-3.8c0,0-1.3,0-2.6,0c-6.4,1.3-14.1,9-16.7,11.5c0,0-11.5,14.1-14.1,34.6
			c-1.3,10.3,2.6,15.4,3.8,16.7l6.4,5.1l0,0c-1.3-10.3,1.3-23.1,6.4-34.6C183.9,137.4,192.9,127.2,201.8,120.8z"/>
		<path fill="none" d="M162.1,218.2L162.1,218.2L162.1,218.2c0,1.3,1.3,1.3,2.6,1.3C163.4,218.2,163.4,218.2,162.1,218.2z"/>
		<path fill="none" d="M185.2,219.5L185.2,219.5L185.2,219.5L185.2,219.5z"/>
		<path fill="none" d="M140.3,234.9c0,9,14.1,16.7,32.1,16.7c16.7,0,30.8-7.7,30.8-16.7v-1.3c0-3.8-2.6-7.7-6.4-10.3l-1.3,11.5l0,0
			c0,9-10.3,15.4-23.1,15.4c-12.8,0-23.1-7.7-23.1-16.7c0,0,0,0,0-1.3l0,0l1.3-10.3C144.2,225.9,140.3,231,140.3,234.9z"/>
		<path fill="none" d="M176.2,220.8c-3.8,0-7.7-1.3-11.5-2.6c-1.3,0-1.3,0-2.6,0l-2.6,14.1l0,0l0,0c0,1.3,5.1,5.1,11.5,5.1
			c7.7,0,11.5-3.8,11.5-5.1V231l0,0l1.3-12.8l0,0h-1.3C181.3,220.8,178.8,220.8,176.2,220.8z"/>
		<path fill="#3878FF" d="M159.5,233.6L159.5,233.6L159.5,233.6z"/>
		<path fill="#3878FF" d="M159.5,233.6L159.5,233.6L159.5,233.6z"/>
		<path fill="none" d="M150.6,300.2v1.3l-1.3,15.4l0,0l0,0l0,0c0,2.6,5.1,6.4,14.1,6.4c7.7,0,14.1-3.8,14.1-6.4c0,0,0,0,0-1.3l0,0
			l0,0v-1.3v1.3l0,0l1.3-12.8v-2.6c-3.8,0-6.4,1.3-10.3,1.3C160.8,302.8,155.7,301.5,150.6,300.2z"/>
		<polygon fill="#3878FF" points="148,318.2 148,318.2 148,316.9 		"/>
		<path fill="#3878FF" d="M148,316.9L148,316.9L148,316.9z"/>
		<path fill="#3878FF" d="M174.9,316.9L174.9,316.9L174.9,316.9z"/>
		<path fill="#3878FF" d="M174.9,316.9L174.9,316.9C176.2,315.6,176.2,315.6,174.9,316.9z"/>
		<path fill="none" d="M137.7,252.8L137.7,252.8l-2.6,20.5v1.3l0,0c0,3.8,2.6,6.4,5.1,9s6.4,3.8,10.3,5.1c5.1,1.3,10.3,2.6,15.4,2.6
			c3.8,0,7.7,0,11.5-1.3c3.8-1.3,9-2.6,11.5-5.1c3.8-2.6,7.7-6.4,7.7-10.3l0,0l0,0l2.6-17.9v-1.3c-7.7,5.1-17.9,7.7-29.5,7.7
			S145.4,259.2,137.7,252.8z"/>
		<path fill="#3878FF" d="M135.2,274.6L135.2,274.6L135.2,274.6L135.2,274.6z"/>
		<path fill="#3878FF" d="M135.2,274.6L135.2,274.6L135.2,274.6z"/>
		<path fill="#EE4722" d="M148,316.9L148,316.9L148,316.9z"/>
		<path fill="none" d="M300.6,182.3c-7.7,3.8-12.8,15.4-12.8,24.4c0,9,6.4,14.1,12.8,10.3c7.7-3.8,12.8-15.4,12.8-24.4
			S308.3,178.5,300.6,182.3z"/>
		<path fill="#EE4722" d="M323.6,246.4c-14.1,7.7-25.6,0-25.6-19.2s11.5-41,25.6-48.7s25.6,0,25.6,19.2S337.7,238.7,323.6,246.4z
			 M323.6,195.1c-7.7,3.8-12.8,15.4-12.8,24.4c0,9,6.4,14.1,12.8,10.3c7.7-3.8,12.8-15.4,12.8-24.4
			C336.5,195.1,331.3,191.3,323.6,195.1z"/>
		<g>
			<path fill="#EE4722" d="M203.1,238.7L203.1,238.7c-1.3,9-15.4,17.9-32.1,17.9S139,249,139,240c0-5.1,3.8-9,10.3-12.8l1.3-12.8
				c-12.8,5.1-21.8,14.1-23.1,24.4l0,0l-5.1,39.7l0,0c0,0,0,0,0,1.3c0,9,6.4,16.7,15.4,21.8l-2.6,20.5l0,0l0,0
				c0,10.3,10.3,16.7,24.4,16.7c14.1,0,24.4-7.7,24.4-16.7l0,0l2.6-19.2C198,297.7,205.7,290,207,281l5.1-41l0,0c0,0,0,0,0-1.3
				c0-9-6.4-16.7-16.7-21.8l1.3,11.5C200.6,231,203.1,234.9,203.1,238.7z M177.5,306.7l-1.3,12.8v1.3c0,2.6-5.1,6.4-14.1,6.4
				c-7.7,0-14.1-3.8-14.1-6.4l0,0l0,0l0,0l0,0l1.3-15.4v-1.3c5.1,1.3,10.3,2.6,16.7,2.6c3.8,0,7.7,0,10.3-1.3L177.5,306.7z
				 M200.6,260.5l-2.6,17.9l0,0l0,0c0,3.8-3.8,7.7-7.7,10.3c-3.8,2.6-7.7,3.8-11.5,5.1c-3.8,1.3-7.7,1.3-11.5,1.3
				c-5.1,0-10.3-1.3-15.4-2.6c-3.8-1.3-7.7-2.6-10.3-5.1c-3.8-2.6-5.1-6.4-5.1-9l0,0l0,0l0,0c0,0,0,0,0-1.3l2.6-20.5v-1.3
				c6.4,6.4,19.2,11.5,33.3,11.5c11.5,0,21.8-2.6,29.5-7.7L200.6,260.5z"/>
			<path fill="#EE4722" d="M199.3,207.9L199.3,207.9c-3.8,1.3-7.7,2.6-11.5,1.3c-1.3,1.3-5.1,3.8-11.5,3.8c-7.7,0-11.5-3.8-11.5-5.1
				c0-1.3,3.8-3.8,9-5.1l-12.8-7.7c-3.8,2.6-7.7,6.4-7.7,11.5l0,0l-1.3,6.4l-1.3,12.8l-1.3,10.3l0,0c0,0,0,0,0,1.3
				c0,9,10.3,16.7,23.1,16.7s21.8-6.4,23.1-15.4l0,0l1.3-9l1.3-11.5L199.3,207.9L199.3,207.9L199.3,207.9z M185.2,223.3L185.2,223.3
				l-1.3,12.8l0,0v1.3c0,1.3-5.1,5.1-11.5,5.1c-7.7,0-11.5-3.8-11.5-5.1l0,0l0,0l0,0l0,0l1.3-15.4l0,0v-1.3c1.3,0,1.3,0,2.6,1.3
				c3.8,1.3,7.7,2.6,11.5,2.6C178.8,224.6,181.3,223.3,185.2,223.3L185.2,223.3L185.2,223.3z"/>
			<path fill="#EE4722" d="M353.1,149C353.1,149,353.1,147.7,353.1,149L353.1,149c-1.3,0-20.5-11.5-26.9-14.1
				c-2.6-1.3-5.1-1.3-7.7-1.3c-6.4,0-12.8,1.3-20.5,6.4c-6.4,5.1-14.1,14.1-19.2,19.2l-41-19.2c0-11.5-5.1-20.5-11.5-24.4l0,0
				c0,0-16.7-10.3-23.1-12.8c-1.3,0-7.7-1.3-7.7-1.3c-12.8,1.3-25.6,16.7-25.6,16.7s-15.4,17.9-16.7,43.6c-1.3,20.5,9,28.2,9,28.2
				l21.8,11.5l0,0c1.3,1.3,2.6,2.6,3.8,2.6c7.7,3.8,16.7,1.3,25.6-6.4l42.3,19.2c-1.3,6.4-1.3,15.4-1.3,23.1
				c1.3,14.1,7.7,23.1,7.7,23.1l28.2,16.7c1.3,1.3,2.6,2.6,3.8,2.6c9,3.8,19.2,2.6,29.5-3.8c15.4-9,28.2-25.6,37.2-46.2
				C377.5,196.4,374.9,157.9,353.1,149z M305.7,150.2c5.1-3.8,10.3-5.1,12.8-5.1s3.8,0,3.8,0c1.3,0,3.8,1.3,6.4,2.6
				c-9,3.8-17.9,11.5-26.9,21.8l-11.5-5.1C295.4,160.5,300.6,154.1,305.7,150.2z M165.9,163.1c1.3-20.5,12.8-34.6,14.1-34.6
				c2.6-3.8,10.3-10.3,16.7-11.5c1.3,0,2.6,0,2.6,0c1.3,0,3.8,1.3,7.7,3.8c-10.3,5.1-19.2,15.4-24.4,28.2
				c-5.1,11.5-7.7,24.4-6.4,34.6l0,0l-6.4-3.8C167.2,178.5,164.7,173.3,165.9,163.1z M265.9,240c0-5.1,0-11.5,0-16.7l10.3,5.1
				c-1.3,11.5-1.3,21.8,0,30.8l-7.7-3.8C268.5,252.8,267.2,247.7,265.9,240z M351.8,229.7c-6.4,15.4-16.7,28.2-28.2,34.6
				c-7.7,5.1-15.4,5.1-21.8,2.6c-11.5-5.1-16.7-24.4-11.5-46.2c1.3-3.8,0-6.4-2.6-7.7l-70.5-33.3c-1.3,0-2.6,0-3.8,0l-1.3,1.3
				c-6.4,6.4-12.8,7.7-16.7,5.1c-3.8-1.3-6.4-6.4-6.4-12.8c0-6.4,1.3-14.1,3.8-20.5c6.4-14.1,17.9-23.1,25.6-19.2
				c5.1,2.6,7.7,9,7.7,16.7c0,2.6,1.3,5.1,2.6,5.1l70.5,33.3c2.6,1.3,5.1,0,7.7-3.8c12.8-17.9,29.5-25.6,41-20.5
				C360.8,173.3,364.7,201.5,351.8,229.7z"/>
			<path fill="#EE4722" d="M326.2,287.4L326.2,287.4c-3.8,2.6-7.7,3.8-11.5,5.1c-14.1,5.1-26.9,0-34.6-10.3L257,269.5l-50,123.1l0,0
				c-1.3,2.6-1.3,3.8-1.3,6.4c0,12.8,16.7,21.8,37.2,21.8s37.2-10.3,37.2-21.8c0,1.3,0,2.6-1.3,3.8L326.2,287.4z M221.1,399
				L221.1,399c-2.6-1.3-3.8-2.6-2.6-3.8l39.7-101.3c1.3-1.3,2.6-2.6,3.8-1.3c1.3,1.3,2.6,2.6,1.3,3.8l-39.7,101.3
				C223.6,399,222.4,399,221.1,399z M274.9,383.6l-2.6,6.4c0,0-6.4,16.7-20.5,19.2c-20.5,3.8-14.1-16.7-14.1-16.7l6.4-17.9
				l29.5-75.6c3.8,6.4,10.3,14.1,29.5,12.8L274.9,383.6z"/>
		</g>
	</g>
</g>
</svg>
