<?xml version="1.0" encoding="utf-8"?>
<!-- Generator: Adobe Illustrator 18.1.1, SVG Export Plug-In . SVG Version: 6.00 Build 0)  -->
<svg version="1.1" id="Layer_1" xmlns="http://www.w3.org/2000/svg" xmlns:xlink="http://www.w3.org/1999/xlink" x="0px" y="0px"
	 viewBox="473 -160 240 620" enable-background="new 473 -160 240 620" xml:space="preserve">
<path fill="#E6E6E6" d="M683.8-140l-180.7,9.2c-15.9,0.8-28.3,13.9-28.3,29.8V41.4v212.3v142.4c0,15.9,12.4,28.9,28.3,29.8
	l157.8,6.6c19.4,0.8,38,8.7,52.1,22.2V312.3V-11.6V-154C705.6-145.7,695-140.6,683.8-140z"/>
<path fill="none" d="M713-153.8L713-153.8c-7.4,8.2-18,13.2-29.2,13.7l-180.7,9.2c-15.9,0.8-28.3,13.8-28.3,29.7V41.1v212.6v142.4
	c0,15.9,12.4,29,28.3,29.8l157.8,6.6c19.6,0.8,38,8.7,52.1,22.2l0,0V312.4V-11.7V-153.8z"/>
</svg>
