<?xml version="1.0" encoding="utf-8"?>
<!-- Generator: Adobe Illustrator 18.1.1, SVG Export Plug-In . SVG Version: 6.00 Build 0)  -->
<svg version="1.1" id="Layer_1" xmlns="http://www.w3.org/2000/svg" xmlns:xlink="http://www.w3.org/1999/xlink" x="0px" y="0px"
	 viewBox="0 0 60 60" enable-background="new 0 0 60 60" xml:space="preserve">
<g>
	<path fill="#FFFFFF" d="M45,60H15C6.7,60,0,53.3,0,45V15C0,6.7,6.7,0,15,0h30c8.3,0,15,6.7,15,15v30C60,53.3,53.3,60,45,60z"/>
</g>
<g>
	<path fill="#EE4722" d="M45,3.5c6.3,0,11.5,5.2,11.5,11.5v30c0,6.3-5.2,11.5-11.5,11.5H15C8.7,56.5,3.5,51.3,3.5,45V15
		C3.5,8.7,8.7,3.5,15,3.5H45 M45,0H15C6.7,0,0,6.7,0,15v30c0,8.3,6.7,15,15,15h30c8.3,0,15-6.7,15-15V15C60,6.7,53.3,0,45,0L45,0z"
		/>
</g>
<g>
	<path fill="#EE4722" d="M28.5,50.7H17.9c-0.8,0-1.5-0.7-1.5-1.5s0.7-1.5,1.5-1.5h10.2v-9.1c0-1.4,1.1-2.6,2.6-2.6h9.1v-9.1
		c0-1.4,1.1-2.6,2.6-2.6h10.6c0.8,0,1.5,0.7,1.5,1.5s-0.7,1.5-1.5,1.5H42.7v9.1c0,1.4-1.1,2.6-2.6,2.6h-9.1v9.1
		C31.1,49.5,29.9,50.7,28.5,50.7z"/>
</g>
<g>
	<g>
		<path fill="#3878FF" d="M26.9,29.3c-0.3,0-0.5-0.1-0.7-0.3c-0.4-0.4-0.4-1,0-1.4l14.1-14.1c0.3-0.3,0.8-0.4,1.2-0.2
			c0.4,0.2,0.6,0.7,0.5,1.1l-1.8,7.2c-0.1,0.5-0.7,0.9-1.2,0.7c-0.5-0.1-0.9-0.7-0.7-1.2l0.9-3.7L27.6,29
			C27.4,29.2,27.2,29.3,26.9,29.3z"/>
	</g>
	<g>
		<path fill="#3878FF" d="M33.9,16.9c-0.4,0-0.9-0.3-1-0.8c-0.1-0.5,0.2-1.1,0.7-1.2l7.2-1.8c0.5-0.1,1.1,0.2,1.2,0.7
			c0.1,0.5-0.2,1.1-0.7,1.2l-7.2,1.8C34,16.9,34,16.9,33.9,16.9z"/>
	</g>
</g>
<g>
	<g>
		<path fill="#3878FF" d="M10.8,36.4c-0.2,0-0.3,0-0.5-0.1c-0.4-0.2-0.6-0.7-0.5-1.1l1.8-7.2c0.1-0.5,0.7-0.9,1.2-0.7
			c0.5,0.1,0.9,0.7,0.7,1.2l-0.9,3.7l11.6-11.6c0.4-0.4,1-0.4,1.4,0s0.4,1,0,1.4L11.5,36.1C11.3,36.3,11,36.4,10.8,36.4z"/>
	</g>
	<g>
		<path fill="#3878FF" d="M10.8,36.4c-0.4,0-0.9-0.3-1-0.8c-0.1-0.5,0.2-1.1,0.7-1.2l7.2-1.8c0.5-0.1,1.1,0.2,1.2,0.7
			c0.1,0.5-0.2,1.1-0.7,1.2L11,36.4C10.9,36.4,10.9,36.4,10.8,36.4z"/>
	</g>
</g>
</svg>
