<?xml version="1.0" encoding="utf-8"?>
<!-- Generator: Adobe Illustrator 18.1.1, SVG Export Plug-In . SVG Version: 6.00 Build 0)  -->
<svg version="1.1" id="Layer_1" xmlns="http://www.w3.org/2000/svg" xmlns:xlink="http://www.w3.org/1999/xlink" x="0px" y="0px"
	 viewBox="0 0 500 500" enable-background="new 0 0 500 500" xml:space="preserve">
<path fill="#323132" d="M446.7,116.9L267.2,14.3c-6.4-3.8-12.8-5.1-19.2-5.1s-12.8,1.3-19.2,5.1L49.3,116.9
	c-11.5,6.4-19.2,19.2-19.2,33.3v205.1c0,14.1,7.7,26.9,19.2,33.3l179.5,102.6c6.4,3.8,12.8,5.1,19.2,5.1s12.8-1.3,19.2-5.1
	l179.5-102.6c11.5-6.4,19.2-19.2,19.2-33.3V150.2C465.9,136.1,458.3,123.3,446.7,116.9z"/>
<path fill="#3878FF" d="M446.7,116.9L267.2,14.3c-6.4-3.8-12.8-5.1-19.2-5.1c-6.4,0-12.8,1.3-19.2,5.1L49.3,116.9
	c-11.5,6.4-19.2,19.2-19.2,33.3v205.1c0,14.1,7.7,26.9,19.2,33.3l179.5,102.6c6.4,3.8,12.8,5.1,19.2,5.1c6.4,0,12.8-1.3,19.2-5.1
	l179.5-102.6c11.5-6.4,19.2-19.2,19.2-33.3V150.2C465.9,136.1,458.3,123.3,446.7,116.9z M427.5,150.2L427.5,150.2L427.5,150.2
	L427.5,150.2z M248,47.7l164.1,93.6l-33.3,20.5L213.4,66.9L248,47.7z M244.2,399L68.5,292.6V281l32.1-21.8L287.7,372L244.2,399z
	 M113.4,237.4V190l185.9,112.8V349L113.4,237.4z M312.1,281L124.9,165.6l42.3-28.2l187.2,112.8L312.1,281z M187.7,82.3l178.2,101.3
	v44.9L180.1,115.6V86.1L187.7,82.3z M160.8,97.7v21.8l-62.8,41c-2.6,1.3-3.8,5.1-3.8,7.7v73.1l-25.6,16.7V150.2L160.8,97.7z
	 M68.5,355.4v-32.1L232.6,422V449L68.5,355.4z M248,457.9L248,457.9L248,457.9L248,457.9z M264.7,449v-23.1l60.3-37.2
	c5.1-2.6,7.7-7.7,7.7-14.1v-67.9l59-41c3.8-2.6,6.4-7.7,6.4-12.8v-65.4l29.5-19.2v185.9L264.7,449z"/>
</svg>
