<?xml version="1.0" encoding="utf-8"?>
<!-- Generator: Adobe Illustrator 18.1.1, SVG Export Plug-In . SVG Version: 6.00 Build 0)  -->
<svg version="1.1" id="Layer_1" xmlns="http://www.w3.org/2000/svg" xmlns:xlink="http://www.w3.org/1999/xlink" x="0px" y="0px"
	 viewBox="0 0 506 49" enable-background="new 0 0 506 49" xml:space="preserve">
<g>
	<path fill="#E6E6E6" d="M3,26.2C3,36.6,11.4,45,21.8,45h462.5c10.4,0,18.8-8.4,18.8-18.8V15.9V0H3v15.9V26.2z"/>
	<linearGradient id="SVGID_1_" gradientUnits="userSpaceOnUse" x1="0" y1="24" x2="506" y2="24">
		<stop  offset="0" style="stop-color:#3878FF;stop-opacity:0.6"/>
		<stop  offset="0.241" style="stop-color:#606DCE;stop-opacity:0.6964"/>
		<stop  offset="0.7872" style="stop-color:#C55253;stop-opacity:0.9149"/>
		<stop  offset="1" style="stop-color:#EE4722"/>
	</linearGradient>
	<path fill="url(#SVGID_1_)" d="M503,15.9v10.4c0,10.4-8.4,18.8-18.8,18.8H21.8C11.4,45,3,36.6,3,26.2V15.9V0H0v15.9v10.4
		C0,38.2,9.8,48,21.8,48h462.5c12,0,21.8-9.8,21.8-21.8V15.9V0h-3V15.9z"/>
</g>
</svg>
