<?xml version="1.0" encoding="utf-8"?>
<!-- Generator: Adobe Illustrator 18.1.1, SVG Export Plug-In . SVG Version: 6.00 Build 0)  -->
<svg version="1.1" id="Layer_1" xmlns="http://www.w3.org/2000/svg" xmlns:xlink="http://www.w3.org/1999/xlink" x="0px" y="0px"
	 viewBox="0 0 64 64" enable-background="new 0 0 64 64" xml:space="preserve">
<g>
	<g>
		<path fill="#1B1464" d="M48.5,0H20.7c-0.2,1.7-0.4,3.3-0.4,5c0,18.6,15.1,33.7,33.7,33.7c3.5,0,6.9-0.5,10-1.5V15.4
			C64,6.9,57.1,0,48.5,0z"/>
		<path fill="#200B3D" d="M0,15.4V31C2,30.3,4.2,30,6.4,30c12,0,21.7,9.8,21.7,21.8c0,4.5-1.4,8.8-3.7,12.2h24.2
			C57.1,64,64,57,64,48.4V37.2c-3.1,1-6.5,1.5-10,1.5C35.4,38.7,20.3,23.6,20.3,5c0-1.7,0.1-3.3,0.4-5h-5.2C7,0,0,6.9,0,15.4z"/>
		<path fill="#200B3D" d="M6.4,30C4.2,30,2,30.3,0,31v17.5C0,57,7,64,15.5,64h8.9c2.4-3.5,3.7-7.7,3.7-12.2
			C28.1,39.8,18.4,30,6.4,30z"/>
		<path opacity="0.3" fill="#ED246D" d="M6.4,30C4.2,30,2,30.3,0,31v17.5C0,57,7,64,15.5,64h8.9c2.4-3.5,3.7-7.7,3.7-12.2
			C28.1,39.8,18.4,30,6.4,30z"/>
	</g>
	<g>
		<g>
			<defs>
				<path id="SVGID_1_" d="M28.5,11.8L15.7,27.7l0,16.3l18.5,5.2l12.5-15.3L48.6,18l-7.4-3.9L28.5,11.8z M32,35.6
					c-3.4,4.2-7.7,5.1-9.7,2c-1-1.6,1-3.1,1.5-5.5c0.5-2.4-0.6-5.7,1.1-7.8c3.4-4.2,7.7-5.1,9.7-2C36.6,25.5,35.4,31.4,32,35.6z"/>
			</defs>
			<clipPath id="SVGID_2_">
				<use xlink:href="#SVGID_1_"  overflow="visible"/>
			</clipPath>
			<g clip-path="url(#SVGID_2_)">
				
					<image overflow="visible" width="2400" height="2000" xlink:href="../Картиночки/064 Red Salvation.png"  transform="matrix(-2.231835e-002 0 0 -2.231835e-002 56.7633 54.3536)">
				</image>
			</g>
		</g>
		<g>
			<defs>
				<polygon id="SVGID_3_" points="35.8,15.7 23.1,31.6 15.7,27.7 28.5,11.8 				"/>
			</defs>
			<clipPath id="SVGID_4_">
				<use xlink:href="#SVGID_3_"  overflow="visible"/>
			</clipPath>
			<g transform="matrix(1 0 0 1 3.814697e-006 0)" clip-path="url(#SVGID_4_)">
				
					<image overflow="visible" width="2400" height="2000" xlink:href="../Картиночки/146 Juicy Cake.png"  transform="matrix(-2.475232e-002 0 0 -2.475232e-002 53.793 59.3844)">
				</image>
			</g>
		</g>
		<g>
			<path fill="none" stroke="#3878FF" stroke-width="5.5516" stroke-linejoin="round" stroke-miterlimit="10" d="M59.1,17.4"/>
		</g>
		<linearGradient id="SVGID_5_" gradientUnits="userSpaceOnUse" x1="19.5061" y1="21.3814" x2="33.3568" y2="21.3814">
			<stop  offset="0" style="stop-color:#FFFFFF;stop-opacity:0"/>
			<stop  offset="0.9944" style="stop-color:#FFFFFF;stop-opacity:0.7"/>
		</linearGradient>
		<path fill="url(#SVGID_5_)" d="M28.6,12.7l4.7,2.6c0.7,0.4,0.9,1.3,0.4,1.9L23.1,30.1l-5.6-3.1L28.6,12.7z"/>
		<g>
			<defs>
				<path id="SVGID_6_" d="M35.8,15.7L23.1,31.6l0,18.2l12.8,2.3l12.8-15.9l0-18.2L35.8,15.7z M39.4,39.6c-3.4,4.2-7.7,5.1-9.7,2
					c-2-3.1-0.8-9.1,2.6-13.3s7.7-5.1,9.7-2C43.9,29.4,42.8,35.4,39.4,39.6z"/>
			</defs>
			<clipPath id="SVGID_7_">
				<use xlink:href="#SVGID_6_"  overflow="visible"/>
			</clipPath>
			<g transform="matrix(1 -3.469447e-018 3.469447e-018 1 0 0)" clip-path="url(#SVGID_7_)">
				
					<image overflow="visible" width="2400" height="2000" xlink:href="../Картиночки/048 Strong Bliss.png"  transform="matrix(7.378998e-013 -1.643554e-002 1.643554e-002 7.378998e-013 19.3959 53.6308)">
				</image>
			</g>
		</g>
		<g>
			<defs>
				<polygon id="SVGID_8_" points="15.7,45.4 15.7,27.7 23.1,31.6 23.1,49.9 				"/>
			</defs>
			<clipPath id="SVGID_9_">
				<use xlink:href="#SVGID_8_"  overflow="visible"/>
			</clipPath>
			<g transform="matrix(1 0 0 1 0 0)" clip-path="url(#SVGID_9_)">
				
					<image overflow="visible" width="2400" height="2000" xlink:href="../Картиночки/064 Red Salvation.png"  transform="matrix(-1.727712e-002 0 0 -1.727712e-002 42.1584 58.8816)">
				</image>
			</g>
		</g>
	</g>
</g>
</svg>
